<svg width="315" height="302" viewBox="0 0 315 302" fill="none" xmlns="http://www.w3.org/2000/svg">
<path d="M312.302 105.077C309.275 89.5032 303.046 74.6216 294.179 61.4705C285.528 48.6222 274.498 37.5043 261.781 28.6359C248.372 19.2917 233.19 12.5864 217.575 7.91427C184.01 -2.0356 148.368 -1.47322 114.586 7.13558C106.281 9.25533 98.3657 12.4566 90.5799 15.9174C82.7941 19.3782 75.311 23.488 68.2606 28.2899C54.5056 37.6341 42.6539 49.2711 32.4891 62.379C31.4077 63.8066 30.3264 65.2342 29.2883 66.6618C28.4664 66.6618 27.6013 66.705 26.7795 66.705C25.3953 66.7483 25.3953 68.9113 26.7795 68.868C27.0823 68.868 27.4283 68.868 27.7311 68.868C27.0823 69.7765 26.4767 70.685 25.8711 71.5934C25.0926 72.7615 26.9525 73.843 27.7311 72.6749C28.5962 71.3771 29.5045 70.0793 30.4129 68.8248C40.6209 68.6085 50.8722 68.4354 61.0803 68.4354C63.5891 68.4354 66.0978 68.4354 68.6498 68.4787C65.276 68.9545 61.9021 69.5169 58.5716 70.1658C53.1647 71.1608 47.7147 71.9828 42.2646 72.8047C35.7764 73.7564 29.245 74.6649 22.7568 75.5734C21.762 75.7032 20.7671 75.8762 19.7723 76.006C19.2099 76.0925 18.8639 76.8279 19.0369 77.347C19.21 77.9527 19.7723 78.169 20.3778 78.0825C27.039 77.1307 33.657 76.2223 40.3181 75.2273C46.1575 74.3621 52.0401 73.5401 57.8362 72.4586C61.5561 71.7665 65.3193 71.0743 69.0824 70.5552C69.4717 70.5119 70.1205 70.4254 70.6828 70.3389C71.2451 70.2524 71.8507 70.2091 72.413 70.1658C73.5809 70.0361 74.792 69.9495 75.9599 69.863C78.2523 69.7332 80.5881 69.69 82.8806 69.863C83.4429 69.9063 83.9619 69.9495 84.5243 70.0361C84.5675 70.0361 84.6973 70.0361 84.6973 70.0793C84.827 70.0793 84.9135 70.1226 85.0433 70.1226C85.3028 70.1658 85.5624 70.2091 85.8219 70.2524C86.7735 70.4254 87.6818 70.6417 88.5902 70.9878C88.8064 71.0743 88.9795 71.1176 89.1957 71.2041C89.239 71.2041 89.2822 71.2473 89.3255 71.2473C89.4553 71.2906 89.5418 71.3339 89.6715 71.4204C90.0176 71.5934 90.4069 71.8097 90.7529 72.026L90.7962 72.0693C91.445 72.848 92.0073 73.7564 92.4398 74.7947C93.7807 77.9094 94.1268 81.4135 94.2133 84.7878C94.2565 87.2537 93.997 89.7195 93.997 92.1853C93.997 96.5979 93.997 101.01 93.997 105.423C93.997 112.345 93.997 119.223 93.997 126.145C93.997 126.75 93.997 127.356 93.997 127.962C92.7859 127.226 91.5747 126.577 90.3204 125.972C88.4604 125.106 86.5572 124.328 84.5675 123.809C84.4377 123.246 84.1782 122.727 83.7457 122.294C83.2266 121.732 82.4913 121.386 81.7992 121.04C81.7127 120.91 81.5397 120.78 81.3234 120.737C77.344 119.958 73.3646 119.136 69.3852 118.358C69.0824 118.315 68.8661 118.358 68.6931 118.531C66.5304 118.92 65.276 121.386 66.0978 123.419C66.3141 123.982 66.6601 124.501 67.1359 124.933C67.1359 125.236 67.3522 125.539 67.7415 125.626C71.8507 126.447 75.9599 127.399 80.1555 127.702C80.3286 127.702 80.5016 127.659 80.6313 127.616C81.6262 127.659 82.6211 127.486 83.3996 126.923C83.7457 126.664 84.0485 126.318 84.2215 125.972C85.3461 126.274 86.4707 126.664 87.5953 127.14C89.8013 128.048 91.964 129.216 93.997 130.557C93.997 136.527 93.997 142.54 93.997 148.51C93.997 154.48 93.997 160.45 93.997 166.42C93.997 168.886 93.997 171.352 93.997 173.861C93.997 177.971 93.997 182.123 93.997 186.233C92.6994 188.786 91.5315 191.424 90.7529 194.15C89.6715 194.885 88.5902 195.577 87.5088 196.313C81.929 200.033 76.3492 203.797 70.7693 207.517C70.6828 207.431 70.6396 207.387 70.553 207.301C68.9094 205.744 67.309 204.1 65.7085 202.456C66.2276 201.98 66.7899 201.504 67.2657 200.985C70.034 198.13 72.4562 194.756 73.9269 191.035C74.7487 188.959 75.2678 186.752 75.4841 184.546C75.9166 184.113 76.2626 183.551 76.4357 182.945C76.825 181.821 76.6087 180.393 75.6571 179.614C75.6138 179.571 75.5706 179.528 75.4841 179.485C75.2245 176.673 74.5757 173.904 73.4511 171.352C72.3697 168.843 70.8126 166.55 68.8661 164.69C69.1689 163.868 69.4717 163.046 69.7312 162.224C70.2503 163.002 71.1154 163.565 72.1102 163.435C72.932 163.349 73.6241 162.959 74.2729 162.397C74.8352 161.921 75.2245 161.272 75.4841 160.58C75.8734 159.455 75.6571 158.028 74.7055 157.249C74.1432 156.773 73.4511 156.513 72.7158 156.6C72.3265 156.643 71.9372 156.773 71.5912 156.903C72.4562 154.307 73.4511 150.717 71.9372 149.419C71.9804 148.597 71.6344 147.775 71.0721 147.169C70.553 146.607 69.8177 146.261 69.1256 145.915C69.0391 145.785 68.8661 145.655 68.6498 145.612C67.309 145.352 65.9681 145.093 64.6272 144.79C65.2327 143.752 65.8383 142.713 66.4006 141.632C67.309 139.901 69.861 135.446 68.7796 133.066C69.3419 132.504 69.6014 131.812 69.688 131.033C69.7745 130.168 69.4284 129.346 68.8229 128.74C68.3038 128.178 67.5685 127.832 66.8764 127.486C66.7899 127.356 66.6169 127.226 66.4006 127.183C62.4212 126.404 58.4418 125.582 54.4624 124.804C54.1596 124.76 53.9433 124.804 53.7703 124.977C51.6076 125.366 50.3532 127.832 51.175 129.865C51.3913 130.427 51.7373 130.947 52.2131 131.379C52.2131 131.682 52.4294 131.985 52.8187 132.071C56.9279 132.893 61.0371 133.845 65.2327 134.148C65.4058 134.148 65.5788 134.105 65.7085 134.061C65.8383 134.061 66.0113 134.061 66.1411 134.061C66.2276 134.105 66.3141 134.148 66.4439 134.191C67.3522 134.451 63.1565 142.194 62.724 142.93C62.4645 143.362 62.1617 143.838 61.9021 144.271C60.518 144.011 59.1339 143.708 57.7497 143.449C57.4902 143.319 57.2307 143.276 56.9279 143.232C56.8414 143.232 56.7981 143.232 56.7116 143.232C56.7116 143.232 56.7116 143.232 56.6684 143.232C56.4521 143.189 56.2358 143.232 56.0628 143.319C55.933 143.362 55.8465 143.406 55.7168 143.449C54.8949 143.665 54.2028 144.184 53.7703 144.876C53.5108 145.136 53.2945 145.439 53.1215 145.785C52.7322 146.65 52.6024 147.559 52.7754 148.467C52.9052 149.289 53.4243 150.111 54.1596 150.5C54.8084 150.846 55.6302 150.933 56.3656 150.803C56.7116 150.89 57.0576 150.933 57.4469 151.019C57.2307 151.322 57.0144 151.668 56.7981 151.971C55.6735 153.572 54.5921 155.216 53.4675 156.816C51.1318 155.908 48.8393 154.826 46.8496 153.269C44.2976 151.279 42.3511 148.64 40.7074 145.871C40.4047 145.352 40.1019 144.79 39.7991 144.271C39.7991 144.184 39.8424 144.098 39.8424 144.011C39.9289 143.146 39.5828 142.324 38.9773 141.718C38.4582 141.156 37.7229 140.81 37.0308 140.464C36.9443 140.334 36.7713 140.204 36.555 140.161C32.5756 139.382 28.5962 138.56 24.6168 137.782C24.314 137.738 24.0977 137.782 23.9247 137.955C21.762 138.344 20.5076 140.81 21.3294 142.843C21.5457 143.406 21.8917 143.925 22.3675 144.357C22.3675 144.66 22.5838 144.963 22.9731 145.049C27.0823 145.871 31.1914 146.823 35.3871 147.126C35.5602 147.126 35.7332 147.083 35.8629 147.039C36.8145 147.083 37.8094 146.91 38.5447 146.39C39.3233 147.775 40.1884 149.073 41.14 150.37C41.0535 150.37 40.967 150.37 40.8372 150.37C39.8424 150.457 38.9773 150.976 38.2852 151.668C38.2852 151.668 38.2419 151.668 38.2419 151.712L38.1987 151.755C38.1554 151.798 38.1122 151.841 38.1122 151.841C38.0689 151.885 38.0689 151.928 38.0257 151.971C37.0308 153.139 36.5983 154.696 36.901 156.211C37.2038 157.681 38.4582 158.936 40.0154 158.763C41.8753 158.59 43.6055 157.162 44.1678 155.389C44.2976 154.956 44.3841 154.437 44.3408 153.961C46.6333 156.038 49.3583 157.508 52.2564 158.676C49.4449 162.786 46.7198 166.896 43.9515 171.049C43.346 170.573 42.5674 170.27 41.7455 170.357C40.7507 170.486 39.8856 170.962 39.1935 171.654C39.1935 171.654 39.1503 171.654 39.1503 171.698L39.107 171.741C39.0638 171.784 39.0205 171.828 39.0205 171.828C38.9773 171.871 38.9773 171.914 38.934 171.957C38.8475 172.044 38.761 172.13 38.7177 172.26C36.4685 169.708 34.2193 167.155 32.0565 164.56C31.1915 163.565 30.3696 162.57 29.5478 161.532C29.5478 161.445 29.591 161.359 29.591 161.272C29.7208 160.493 29.6343 159.715 29.2883 158.979C29.0287 158.417 28.5529 157.898 28.0339 157.595C27.4283 157.249 26.693 157.162 26.0009 157.335C25.5684 156.816 25.1358 156.297 24.66 155.821C23.1029 154.091 21.5024 152.577 19.3397 152.144C19.1667 151.712 18.9504 151.365 18.6476 151.019C18.1286 150.457 17.3933 150.111 16.7012 149.765C16.6147 149.635 16.4417 149.505 16.2254 149.462C12.246 148.683 8.26656 147.861 4.28715 147.083C3.98437 147.039 3.76809 147.083 3.59508 147.256C3.11928 147.342 2.64348 147.559 2.25419 147.818C3.16253 127.269 9.1749 107.067 18.4746 88.7678C19.6857 86.3452 20.9834 83.9659 22.3243 81.6298C23.0163 80.4185 21.1564 79.337 20.4643 80.5483C9.21816 100.362 1.64862 122.511 0.221224 145.352C-0.514102 157.119 0.653769 168.886 2.68673 180.523C3.72484 186.406 5.02247 192.246 6.66615 198C7.09869 199.428 7.53124 200.855 7.96378 202.283C8.43958 203.84 9.0884 205.354 9.34792 206.955C9.5642 208.209 9.78047 209.377 10.386 210.546C10.4725 210.719 10.6023 210.935 10.6888 211.108C10.5591 211.411 10.5158 211.757 10.5158 212.103C10.5158 212.925 10.9051 213.747 11.5106 214.309C11.7269 214.525 11.9865 214.698 12.246 214.872C12.8948 216.775 13.5869 218.678 14.2789 220.539C13.8464 221.274 14.3222 222.01 14.971 222.269C17.35 228.239 20.1183 233.993 23.4056 239.487C23.1894 240.136 23.6652 240.871 24.314 240.958C24.8763 241.866 25.4386 242.731 26.0009 243.596C27.5581 245.932 29.2017 248.182 30.9319 250.345C31.3645 250.907 31.797 251.426 32.2296 251.989C32.6189 252.465 33.1379 252.941 33.4407 253.46C33.657 253.849 33.7435 254.368 34.003 254.758C34.3923 255.45 35.0844 256.012 35.6034 256.574C39.2368 260.554 42.9999 264.405 46.9793 268.082C55.1112 275.522 64.1081 281.925 73.7539 287.116C73.9269 287.333 74.1864 287.462 74.446 287.506C84.135 292.654 94.4728 296.547 105.286 299.056C114.716 301.219 124.448 302.171 134.007 300.787C134.31 300.873 134.699 300.83 134.959 300.657C136.343 300.44 137.684 300.181 139.068 299.835C141.75 299.186 144.388 298.364 146.984 297.326C149.276 296.417 151.742 295.422 153.731 293.995C157.927 291.01 158.489 285.256 159.441 280.584C160.003 277.815 160.609 275.047 161.82 272.451C162.166 271.672 161.734 270.894 160.868 270.807C158.619 270.591 156.327 270.548 154.034 270.418C152.045 270.288 150.012 270.158 148.195 269.423C146.551 268.774 145.297 267.606 145.34 265.746C145.383 264.707 145.686 263.712 146.075 262.761C146.421 262.804 146.724 262.761 147.07 262.717C147.935 262.544 148.065 261.506 147.546 260.901C147.46 260.814 147.416 260.727 147.33 260.641C147.503 260.338 147.633 260.035 147.806 259.689C147.935 260.944 148.325 262.112 149.06 263.15C149.968 264.448 151.223 265.313 152.737 265.789C154.121 266.222 155.548 266.308 156.976 266.524C157.538 266.611 158.143 266.395 158.316 265.789C158.36 265.659 158.36 265.529 158.316 265.356C158.965 265.962 159.657 266.481 160.479 266.914C163.118 268.298 166.405 268.601 169.217 267.433C170.644 266.827 171.898 265.919 172.893 264.707C175.229 264.275 177.651 262.112 177.435 259.559C177.392 259.084 177.262 258.608 177.046 258.175C185.653 258.305 194.261 258.218 202.825 257.483C202.998 257.829 203.301 258.089 203.734 258.089C209.4 258.305 215.066 257.569 220.603 256.531C226.183 255.493 231.676 254.109 237.213 252.897C242.706 251.686 248.243 250.388 253.13 247.533C254.904 246.495 256.331 245.067 257.239 243.207C258.191 241.347 258.624 239.314 258.926 237.28C259.489 233.041 259.186 228.758 259.662 224.519C260.311 218.462 261.781 212.535 262.603 206.479C263.382 200.855 263.338 195.145 264.247 189.521C264.636 187.142 265.069 184.589 266.193 182.47C266.712 181.431 267.448 180.609 268.269 179.874C268.486 184.633 268.399 189.348 268.226 194.107C268.01 199.428 267.577 204.705 267.058 209.983C267.015 210.589 266.928 211.151 266.885 211.757C266.842 212.319 267.404 212.838 267.967 212.838C268.615 212.838 269.005 212.319 269.048 211.757C269.61 206.522 270.043 201.245 270.302 195.967C270.605 190.127 270.692 184.287 270.389 178.49C270.389 178.446 270.389 178.403 270.389 178.36C273.59 176.37 277.612 174.466 278.002 170.313C278.391 165.555 274.109 161.834 270.086 160.191C269.307 159.888 268.529 159.628 267.707 159.542C267.318 158.114 266.928 156.73 266.453 155.345C271.297 154.091 276.661 155.259 280.683 158.287C282.716 159.844 284.403 161.921 285.268 164.3C286.393 167.285 286.609 170.616 286.653 173.731C286.739 180.826 285.485 187.877 284.447 194.842C283.322 202.456 282.673 210.156 281.722 217.813C281.202 221.793 280.64 225.73 280.035 229.667C278.564 231.7 277.05 233.69 275.406 235.55C272.768 238.535 269.87 241.26 266.626 243.553C265.501 244.332 266.582 246.235 267.707 245.413C272.076 242.299 275.882 238.535 279.256 234.339C278.823 236.761 278.391 239.227 277.915 241.65C277.742 242.645 277.526 243.64 277.31 244.635C277.18 245.197 277.483 245.803 278.045 245.976C278.564 246.105 279.256 245.803 279.386 245.24C280.381 240.438 281.246 235.593 282.024 230.748C287.647 222.875 292.016 213.92 295.952 205.354C303.133 189.694 308.756 173.212 312 156.297C315.071 139.382 315.59 122.035 312.302 105.077ZM82.0155 123.203C82.0587 123.203 82.0587 123.246 82.102 123.246C82.1453 123.289 82.1453 123.289 82.1885 123.333C82.0587 123.333 81.8857 123.289 81.756 123.246C81.5829 123.246 81.4532 123.203 81.2802 123.203C81.2802 123.16 81.3234 123.073 81.3234 123.03C81.3234 122.943 81.3234 122.857 81.3234 122.77C81.3667 122.814 81.4099 122.814 81.4532 122.814C81.5829 122.9 81.7127 122.943 81.8425 123.03C81.8857 123.116 81.9722 123.16 82.0155 123.203ZM70.6828 120.824C70.7693 120.694 70.8126 120.564 70.8126 120.434C71.0721 120.478 71.3749 120.564 71.6344 120.607C71.1154 121.04 70.5963 121.516 70.0772 121.905C69.9475 121.992 69.8177 122.078 69.688 122.165C69.9907 121.689 70.38 121.256 70.6828 120.824ZM78.8579 123.03C78.9012 122.9 78.9012 122.77 78.9012 122.641C78.9012 122.424 78.8147 122.208 78.6416 122.035C79.0309 122.121 79.4202 122.208 79.8095 122.251C79.4635 122.468 79.1607 122.77 78.8579 123.03ZM77.6035 121.862C76.8682 122.381 76.1761 122.943 75.4408 123.506C75.3976 123.549 75.3543 123.592 75.311 123.592C75.5706 123.203 75.8301 122.814 75.9599 122.381C76.0896 122.035 75.8734 121.559 75.5706 121.386H75.5273C76.2626 121.516 76.998 121.689 77.7333 121.819C77.6468 121.819 77.6468 121.862 77.6035 121.862ZM74.6622 124.804C74.6622 124.847 74.6622 124.847 74.6622 124.804C74.619 124.804 74.619 124.804 74.6622 124.804ZM72.6725 122.381C72.6293 122.424 72.586 122.424 72.5428 122.468C72.759 122.165 72.9753 121.862 73.1483 121.559C73.2781 121.343 73.2781 121.126 73.2781 120.953C73.8404 121.083 74.4027 121.17 74.9218 121.3C74.0999 121.3 73.2348 121.992 72.6725 122.381ZM73.0618 124.155C73.0186 124.414 72.9753 124.674 72.9753 124.933C72.7158 124.89 72.4562 124.847 72.1967 124.76C72.4562 124.587 72.759 124.371 73.0618 124.155ZM75.7868 125.366C75.7868 125.409 75.8301 125.453 75.8301 125.496C75.7868 125.496 75.7436 125.496 75.6571 125.452C75.7436 125.409 75.7436 125.409 75.7868 125.366ZM78.2956 125.582C78.2956 125.669 78.2956 125.755 78.3389 125.842C78.2091 125.842 78.0361 125.799 77.9063 125.799C78.0361 125.712 78.1658 125.669 78.2956 125.582ZM67.3955 121.862V121.819C67.3955 121.775 67.3955 121.689 67.4387 121.646C67.482 121.516 67.482 121.386 67.5685 121.256C67.6117 121.213 67.6117 121.126 67.655 121.083C67.6982 120.997 67.828 120.867 67.828 120.78C67.8713 120.737 67.9145 120.694 67.9578 120.607C68.001 120.564 68.0443 120.521 68.0875 120.478C68.2173 120.391 68.3038 120.348 68.4336 120.305H68.4768C68.5201 120.305 68.6066 120.261 68.6498 120.261C68.7796 120.218 68.9094 120.218 69.0391 120.175C68.4336 120.997 67.828 121.862 67.5685 122.857C67.5685 122.814 67.5252 122.77 67.5252 122.77C67.482 122.641 67.4387 122.511 67.4387 122.424V122.381C67.4387 122.338 67.4387 122.295 67.4387 122.251C67.3955 122.121 67.3955 121.992 67.3955 121.862ZM81.9722 125.669C81.929 125.669 81.8857 125.712 81.8857 125.712C81.756 125.755 81.6262 125.799 81.4964 125.842C81.4532 125.842 81.3667 125.885 81.3234 125.885C81.3234 125.885 81.3234 125.885 81.2802 125.885H81.2369H81.1937C81.1071 125.885 81.0206 125.885 80.9341 125.885C80.9774 125.885 80.9774 125.842 81.0206 125.842C81.1937 125.712 81.2802 125.582 81.3667 125.409C81.6695 125.452 81.929 125.496 82.2318 125.539C82.1885 125.582 82.1453 125.582 82.1453 125.582C82.0587 125.626 82.0155 125.626 81.9722 125.669ZM63.3728 132.288C63.6323 132.201 63.8919 132.071 64.1081 131.942C64.0649 132.071 63.9784 132.201 63.9351 132.331H63.8919C63.7188 132.331 63.5458 132.331 63.3728 132.288ZM58.5716 131.509C58.8743 131.293 59.1771 131.076 59.4799 130.86C59.4799 130.86 59.4799 130.86 59.5232 130.817C59.3501 131.076 59.1771 131.336 59.0473 131.595C58.8743 131.595 58.7446 131.552 58.5716 131.509ZM56.3223 131.076C56.4088 131.033 56.4521 130.99 56.4953 130.947C56.4953 130.99 56.4521 131.033 56.4521 131.076C56.4088 131.12 56.3656 131.076 56.3223 131.076ZM53.4675 130.427C53.5108 130.341 53.5108 130.254 53.5108 130.168C53.5108 130.081 53.5108 130.038 53.5108 129.952C53.5108 129.908 53.5108 129.865 53.554 129.865C53.554 129.779 53.5973 129.735 53.5973 129.649C53.5973 129.605 53.6405 129.562 53.6405 129.562C53.7703 129.259 53.9433 128.957 54.1596 128.697C54.2461 128.567 54.3759 128.437 54.4624 128.308C54.5056 128.264 54.5056 128.221 54.5489 128.178C54.5921 128.135 54.6354 128.048 54.7219 128.005C54.9382 127.745 55.1544 127.442 55.3707 127.183C55.414 127.096 55.4572 127.01 55.4572 126.923C56.6684 127.183 57.8795 127.399 59.0906 127.659C58.312 128.091 57.5767 128.697 56.8414 129.259C56.5818 129.432 56.3223 129.649 56.0628 129.822C56.1493 129.692 56.2358 129.562 56.3223 129.432C56.6251 128.957 56.9711 128.524 57.1874 128.005C57.4037 127.486 56.6684 126.967 56.2358 127.269C55.5005 127.745 54.8949 128.308 54.2461 128.87C53.7703 129.259 54.1163 129.822 54.5921 129.908C54.4624 130.168 54.4191 130.471 54.4624 130.817C54.1596 130.774 53.8568 130.687 53.5973 130.644C53.5108 130.471 53.4675 130.427 53.4675 130.427ZM65.5355 128.827C65.4058 128.957 65.276 129.086 65.1462 129.173C65.2327 129.043 65.3193 128.913 65.4058 128.784C65.449 128.827 65.4923 128.827 65.5355 128.827ZM65.1895 129C65.1895 128.957 65.1895 128.957 65.1895 129C65.1895 128.957 65.1895 128.957 65.1895 129C65.2327 128.957 65.2327 128.957 65.2327 128.957C65.1895 129 65.1895 129 65.1895 129ZM59.7394 131.379C59.6962 131.379 59.7394 131.379 59.7394 131.379C59.6962 131.379 59.7394 131.379 59.7394 131.379ZM62.4212 128.524C62.4645 128.437 62.4645 128.308 62.4212 128.221C62.8537 128.308 63.2863 128.394 63.7621 128.481C63.1998 128.957 62.6375 129.432 62.0319 129.908C61.8156 130.081 61.6426 130.211 61.4263 130.384C61.8156 129.779 62.2049 129.173 62.4212 128.524ZM59.1339 129.519C59.0474 129.605 58.9608 129.649 58.8743 129.735C59.2636 129.303 59.6962 128.913 60.0422 128.481C60.2152 128.264 60.2585 128.005 60.172 127.789C60.518 127.875 60.864 127.918 61.2101 128.005C60.4747 128.481 59.8259 129 59.1339 129.519ZM62.0752 131.466C62.0752 131.509 62.0752 131.509 62.0752 131.466C61.9887 131.725 62.0752 131.942 62.2482 132.115C61.9454 132.071 61.6859 132.028 61.3831 131.985C61.6426 131.812 61.8589 131.639 62.0752 131.466ZM67.2225 131.812C67.3955 131.682 67.5685 131.509 67.7415 131.379C67.7415 131.422 67.7415 131.422 67.7415 131.466C67.7415 131.509 67.6982 131.639 67.7415 131.509C67.7415 131.509 67.7415 131.509 67.7415 131.466V131.509C67.7415 131.552 67.6982 131.552 67.6982 131.595C67.655 131.639 67.6117 131.725 67.5685 131.769C67.5252 131.812 67.482 131.855 67.482 131.855C67.3522 131.855 67.309 131.855 67.2225 131.812ZM67.1792 129.735C67.2657 129.822 67.3522 129.865 67.3955 129.952C67.0062 130.298 66.6169 130.687 66.1843 131.033C66.1411 131.076 66.0546 131.12 66.0113 131.163C66.3574 130.644 66.6601 130.125 66.9197 129.562C66.9629 129.605 67.0062 129.649 67.0927 129.649C67.1359 129.692 67.1359 129.692 67.1792 129.735ZM52.4727 128.308V128.264C52.4727 128.221 52.4727 128.135 52.5159 128.091C52.5592 127.962 52.5592 127.832 52.6457 127.702C52.6889 127.659 52.6889 127.572 52.7322 127.529C52.7754 127.442 52.9052 127.313 52.9052 127.226C52.9485 127.183 52.9917 127.14 53.035 127.053C53.0782 127.01 53.1215 126.967 53.1647 126.923C53.2945 126.837 53.381 126.794 53.5108 126.75H53.554C53.5973 126.75 53.6838 126.707 53.727 126.707C53.8568 126.664 53.9433 126.664 54.0731 126.621C54.0298 126.707 53.9866 126.75 54.0298 126.664C53.9433 126.794 53.8136 126.923 53.727 127.053C53.4675 127.356 53.2512 127.702 52.9917 128.005C52.8187 128.264 52.6457 128.567 52.5159 128.87V128.827V128.784C52.5159 128.74 52.5159 128.697 52.5159 128.654C52.4727 128.567 52.4727 128.437 52.4727 128.308ZM33.8732 142.886C34.0895 142.54 34.2625 142.238 34.4355 141.848C34.4788 141.762 34.4788 141.632 34.4788 141.545C34.8248 141.632 35.1709 141.675 35.5169 141.762C34.9546 142.064 34.4355 142.497 33.8732 142.886ZM30.9752 142.237C31.0617 142.108 31.1482 142.021 31.2347 141.891C31.4942 141.545 31.3645 141.156 31.1049 140.896C31.5375 140.983 32.0133 141.069 32.4458 141.156C31.9268 141.416 31.4942 141.848 30.9752 142.237ZM30.0668 140.68C29.6775 140.94 29.3315 141.199 28.9855 141.459C29.1152 141.286 29.2017 141.156 29.2883 140.983C29.3748 140.81 29.418 140.637 29.418 140.507C29.6343 140.55 29.8938 140.594 30.1101 140.637C30.1101 140.68 30.0668 140.68 30.0668 140.68ZM26.9525 140.68C26.9958 140.594 27.0823 140.507 27.1255 140.421C27.212 140.291 27.212 140.204 27.2553 140.118C27.3851 140.161 27.4716 140.161 27.6013 140.204C27.385 140.334 27.1688 140.507 26.9525 140.68ZM25.6116 143.752C25.6116 143.795 25.6116 143.795 25.6116 143.838C25.5684 143.838 25.5251 143.838 25.4819 143.795C25.5251 143.795 25.5684 143.752 25.6116 143.752ZM31.0184 144.271C30.9752 144.487 31.0184 144.703 31.1049 144.876C30.8454 144.833 30.5426 144.79 30.2831 144.747C30.5426 144.617 30.7589 144.444 31.0184 144.271ZM33.9165 144.876V144.92C33.9165 145.049 33.9597 145.136 34.003 145.266C33.7867 145.222 33.5272 145.222 33.3109 145.179C33.4839 145.093 33.7002 145.006 33.9165 144.876ZM37.2471 142.627L37.2903 142.67C37.1606 142.757 37.0308 142.843 36.8578 142.973C36.901 142.8 36.901 142.627 36.901 142.454C36.9443 142.497 37.0308 142.497 37.0741 142.54C37.1173 142.54 37.2038 142.584 37.2471 142.627ZM42.0051 153.658C42.0051 153.658 42.0051 153.701 42.0051 153.745C42.0051 153.701 42.0051 153.658 42.0051 153.658ZM41.659 152.88L41.7023 152.923C41.7888 153.053 41.7023 152.966 41.659 152.88ZM39.4098 153.442C39.4098 153.442 39.3666 153.528 39.3233 153.572C39.3666 153.528 39.4098 153.442 39.4098 153.442ZM41.8753 154.87C41.8753 154.826 41.8753 154.826 41.9186 154.826C41.8753 154.826 41.8753 154.87 41.8753 154.87ZM41.8321 154.913C41.8321 154.913 41.8321 154.956 41.7888 154.956C41.7023 155.086 41.659 155.216 41.5725 155.345L41.5293 155.389L41.5725 155.345C41.5293 155.389 41.4428 155.475 41.3995 155.562C41.2697 155.691 41.14 155.821 41.0102 155.908C41.0102 155.908 41.0102 155.908 40.967 155.951C40.8805 155.994 40.7939 156.081 40.7074 156.124C40.5344 156.211 40.3614 156.34 40.1884 156.384C40.1884 156.384 40.1884 156.384 40.1451 156.384C40.0586 156.427 40.0154 156.427 39.9289 156.47C39.8424 156.47 39.7991 156.513 39.7126 156.513C39.6261 156.513 39.4963 156.513 39.4098 156.513C39.3666 156.513 39.3233 156.47 39.28 156.47C39.2368 156.47 39.1935 156.427 39.1935 156.427C39.1935 156.427 39.1935 156.427 39.2368 156.47H39.28C39.28 156.47 39.28 156.47 39.2368 156.47H39.1935C39.1935 156.47 39.1935 156.47 39.2368 156.47L39.1935 156.427C39.1503 156.384 39.107 156.34 39.107 156.34L39.0638 156.297C39.0205 156.211 38.934 156.124 38.8908 156.038C38.8908 155.994 38.8475 155.951 38.8475 155.908C38.8042 155.821 38.8042 155.735 38.8042 155.691C38.8042 155.648 38.761 155.605 38.761 155.562V155.518V155.562C38.761 155.475 38.761 155.389 38.761 155.302C38.761 155.172 38.761 155.043 38.761 154.913C38.761 154.913 38.761 154.913 38.761 154.87C38.761 154.783 38.8042 154.696 38.8042 154.61C38.8475 154.437 38.8908 154.307 38.934 154.177C38.934 154.221 38.8908 154.221 38.8908 154.264C38.8908 154.221 38.934 154.177 38.934 154.177C38.9773 154.134 39.0205 154.048 38.934 154.134C38.9773 154.091 38.9773 154.004 39.0205 153.961C39.0638 153.875 39.107 153.788 39.1503 153.745C39.1503 153.745 39.1935 153.701 39.1935 153.658C39.2368 153.615 39.2368 153.572 39.28 153.528C39.3233 153.485 39.3233 153.442 39.3666 153.442C39.4963 153.312 39.6261 153.182 39.7558 153.053C39.7558 153.053 39.7991 153.053 39.7991 153.009C39.8856 152.966 39.9289 152.923 40.0154 152.88C40.1019 152.836 40.1451 152.793 40.2316 152.75C40.2316 152.75 40.2749 152.75 40.3181 152.706C40.3614 152.706 40.4047 152.663 40.4047 152.663C40.4912 152.62 40.5344 152.62 40.6209 152.62C40.6209 152.62 40.6209 152.62 40.6642 152.62C40.7074 152.62 40.7507 152.62 40.7507 152.62C40.7939 152.62 40.8372 152.62 40.8805 152.62C40.9237 152.62 40.967 152.663 41.0102 152.663H41.0535C41.0967 152.706 41.14 152.706 41.2265 152.75C41.2697 152.75 41.2697 152.793 41.313 152.836C41.3563 152.88 41.3995 152.923 41.3995 152.923C41.4428 153.009 41.5725 153.139 41.5725 153.182C41.6158 153.226 41.6158 153.269 41.6158 153.312C41.659 153.442 41.7023 153.572 41.7023 153.658C41.7023 153.701 41.7023 153.745 41.7455 153.788C41.7455 153.918 41.7455 154.048 41.7455 154.177C41.7455 154.221 41.7455 154.307 41.7455 154.35C41.7023 154.48 41.7023 154.61 41.659 154.783C41.8753 154.826 41.8753 154.87 41.8321 154.913ZM42.0051 154.307C42.0051 154.264 42.0051 154.221 42.0051 154.221C42.0483 154.264 42.0483 154.264 42.0051 154.307ZM95.9867 132.028C98.3224 133.758 100.528 135.792 102.259 138.085C104.378 140.853 105.719 144.184 106.454 147.602C107.19 150.933 107.103 154.437 106.541 157.768C105.978 161.056 105.113 164.387 103.902 167.458C101.869 172.693 98.755 177.408 95.9434 182.253C95.9434 179.355 95.9434 176.456 95.9434 173.601C95.9434 171.568 95.9434 169.491 95.9434 167.458C95.9434 163.219 95.9434 158.936 95.9434 154.696C95.9434 149.159 95.9434 143.579 95.9434 138.041C95.9867 136.051 95.9867 134.018 95.9867 132.028ZM93.824 191.338C93.824 191.511 93.824 191.684 93.824 191.857C93.7375 191.9 93.651 191.987 93.5212 192.03C93.6077 191.857 93.7375 191.597 93.824 191.338ZM89.8013 204.619C89.8446 204.922 89.8878 205.181 89.9311 205.484C89.9311 205.571 89.9743 205.657 90.0176 205.744C89.6715 205.398 89.5418 205.008 89.8013 204.619ZM91.3152 206.263C91.9208 206.09 92.1803 205.484 92.0938 204.922C92.0938 204.878 92.0938 204.835 92.0938 204.792C92.2668 204.878 92.3533 204.965 92.5263 205.311C92.6561 205.614 92.6128 206.003 92.3966 206.176C92.2236 206.349 91.7477 206.393 91.2719 206.306C91.2719 206.263 91.272 206.263 91.3152 206.263ZM68.3903 208.945C62.6375 212.795 56.8414 216.688 51.0885 220.539C51.2615 219.89 51.4346 219.241 51.6508 218.592C52.3429 216.472 53.208 214.439 54.2028 212.492C55.1112 210.762 56.1926 209.334 57.6632 208.08C59.0906 206.868 60.691 205.917 62.2482 204.878C62.6807 204.619 63.07 204.316 63.5026 204.013C65.103 205.7 66.7899 207.301 68.3903 208.945ZM47.3254 231.181C47.3686 231.137 47.4119 231.137 47.4551 231.094C47.6282 231.31 47.8877 231.44 48.2337 231.484C48.2337 231.657 48.277 231.786 48.277 231.959C48.3635 232.522 49.0988 232.868 49.6179 232.695C49.6611 232.695 49.7476 232.652 49.7909 232.652C49.7476 232.781 49.7044 232.911 49.6179 232.954C49.3151 233.214 48.3202 233.171 47.6714 232.825C46.9361 232.392 46.5468 231.743 47.3254 231.181ZM34.8248 239.141C34.8681 239.097 34.9113 239.097 34.9546 239.054C34.9978 239.097 35.0411 239.141 35.0411 239.141C34.8681 239.487 34.6951 239.833 34.522 240.179C34.3058 239.876 34.349 239.487 34.8248 239.141ZM37.2903 240.525C37.2903 240.698 37.2038 240.828 37.1173 240.914C37.1606 240.784 37.2038 240.655 37.2903 240.525ZM32.4458 233.041C29.9371 234.728 27.4283 236.329 24.9628 238.059C21.762 232.695 19.0802 227.071 16.7877 221.231C17.696 219.63 18.2584 217.856 19.0802 216.213C20.1183 214.136 21.3294 212.146 22.5405 210.156C23.2326 209.031 23.8814 207.907 24.5303 206.782C24.7898 207.258 25.1791 207.647 25.6981 207.907C26.4335 208.253 27.2985 208.296 28.0771 208.036C29.6775 207.474 31.1482 206.09 31.4077 204.359C31.5375 203.581 31.451 202.802 31.1049 202.066C30.8454 201.504 30.3696 200.985 29.8073 200.682C29.3315 200.423 28.8125 200.336 28.3367 200.379C28.8557 199.514 29.3748 198.692 29.8938 197.827C33.7002 191.641 37.5499 185.498 41.5293 179.398C43.5622 181.734 45.5519 184.07 47.5849 186.406C49.7044 188.829 51.8671 191.251 54.0298 193.674C51.9969 198.346 50.0072 203.018 47.9309 207.647C45.4654 213.228 42.9567 218.808 40.5777 224.389C39.9721 225.86 39.3233 227.331 38.7177 228.801C36.5983 230.229 34.522 231.613 32.4458 233.041ZM28.9422 202.802L28.9855 202.845C28.9855 202.845 28.9855 202.888 29.0287 202.888C29.072 202.975 29.1152 203.061 29.1585 203.105C29.2017 203.235 29.245 203.364 29.245 203.494C29.245 203.624 29.245 203.797 29.245 203.927C29.2017 204.1 29.1585 204.273 29.1152 204.446C29.0287 204.619 28.9422 204.749 28.8557 204.878L28.8125 204.922C28.8125 204.878 28.8557 204.878 28.899 204.835C28.8557 204.878 28.8557 204.922 28.8125 204.922C28.7692 204.965 28.7692 205.008 28.8125 204.922C28.7259 205.008 28.6394 205.095 28.5529 205.181C28.4664 205.268 28.3799 205.354 28.2501 205.441C28.2069 205.484 28.1636 205.527 28.1204 205.527C27.9474 205.657 27.7311 205.787 27.5148 205.873C27.3851 205.917 27.212 205.96 27.0823 206.003C26.9958 206.003 26.9093 206.003 26.866 206.003C26.8227 206.003 26.7795 206.003 26.7362 205.96C26.693 205.917 26.6497 205.917 26.5632 205.873C26.52 205.83 26.52 205.83 26.4767 205.787C26.4767 205.787 26.4767 205.744 26.4335 205.744C26.3902 205.7 26.3469 205.614 26.3469 205.527C26.3037 205.441 26.2604 205.311 26.2604 205.181C26.2604 205.051 26.2604 204.878 26.2604 204.749C26.3037 204.576 26.3469 204.403 26.3902 204.23C26.7362 204.186 27.039 204.013 27.212 203.71C27.2985 203.537 27.4283 203.408 27.5148 203.235C27.5581 203.191 27.6013 203.148 27.6013 203.105C27.6446 203.018 27.7311 202.975 27.7743 202.888C27.8176 202.845 27.9041 202.802 27.9474 202.759C27.9474 202.759 27.9474 202.759 27.9906 202.759C28.0771 202.715 28.1636 202.672 28.2501 202.629C28.2934 202.629 28.3367 202.586 28.3799 202.586C28.4232 202.586 28.4232 202.586 28.4664 202.586C28.5097 202.586 28.5962 202.629 28.6394 202.629C28.6827 202.672 28.7259 202.672 28.7692 202.715C28.899 202.715 28.899 202.759 28.9422 202.802ZM58.9176 188.829C58.9176 188.959 58.9176 189.045 58.9176 189.175C58.9176 189.218 58.9176 189.261 58.9176 189.305C58.8743 189.521 58.8311 189.737 58.7446 189.954C58.7446 189.997 58.7013 190.04 58.7013 190.083C58.6581 190.17 58.6148 190.256 58.5716 190.343C58.5283 190.429 58.485 190.516 58.3985 190.603C58.3553 190.646 58.3553 190.646 58.312 190.689C58.2688 190.776 58.1823 190.819 58.0957 190.862C58.0525 190.905 58.0092 190.905 57.966 190.949C57.9227 190.949 57.9227 190.992 57.8795 190.992C58.2255 190.213 58.5283 189.478 58.8743 188.699C58.9176 188.742 58.9176 188.786 58.9176 188.829ZM49.1421 211.238C51.4346 206.046 53.6405 200.898 55.8465 195.707C57.8795 197.957 59.9124 200.206 61.9887 202.456C60.4747 203.537 58.8743 204.489 57.3604 205.571C55.8033 206.739 54.3759 208.08 53.2512 209.724C52.0401 211.54 51.1318 213.617 50.3532 215.65C49.5314 217.77 48.8825 220.02 48.45 222.269C46.5035 223.567 44.5138 224.908 42.5674 226.206C44.7301 221.188 46.9361 216.213 49.1421 211.238ZM72.9753 183.551C72.932 183.551 72.8455 183.594 72.8023 183.594C72.759 183.594 72.759 183.594 72.7158 183.594C72.6725 183.594 72.6293 183.551 72.586 183.551C72.5428 183.551 72.5428 183.508 72.4995 183.508C72.4562 183.465 72.413 183.421 72.3265 183.335C72.2832 183.292 72.2832 183.248 72.24 183.162C72.1967 183.075 72.1967 182.989 72.1535 182.859C72.1535 182.772 72.1535 182.643 72.1535 182.556C72.1535 182.47 72.1967 182.383 72.24 182.297C72.2832 182.21 72.3265 182.167 72.3697 182.123C72.4562 182.037 72.4995 181.95 72.586 181.907C72.759 181.777 72.932 181.604 73.0186 181.345C73.1051 181.302 73.1916 181.258 73.2781 181.215C73.2781 181.95 73.2781 182.643 73.2348 183.378C73.1483 183.465 73.0618 183.508 72.9753 183.551ZM70.38 170.227C71.9372 172.909 72.8455 175.937 73.1916 179.052C72.413 179.225 71.7209 179.658 71.1154 180.177C70.9423 180.307 70.8558 180.523 70.8126 180.739C70.5098 181.085 70.2935 181.431 70.1638 181.864C69.9907 182.426 69.9907 183.118 70.1638 183.681C70.5098 184.892 71.6344 185.93 72.9753 185.801C72.8023 186.839 72.5428 187.877 72.24 188.872C71.1586 192.376 69.0824 195.534 66.6601 198.26C65.8383 199.168 64.9732 200.033 64.0649 200.855C63.5026 200.25 62.9403 199.644 62.3779 199.038C60.6478 197.135 58.9176 195.188 57.1874 193.285C57.62 193.328 58.0092 193.241 58.3985 193.155C59.6962 192.722 60.6045 191.597 60.9506 190.256C61.2533 189.132 61.2101 187.747 60.5613 186.752C60.3882 186.536 60.2152 186.32 59.999 186.147C62.7672 179.787 65.4923 173.385 67.9145 166.896C68.8661 167.891 69.688 169.016 70.38 170.227ZM72.4995 160.969C72.3697 161.056 72.24 161.142 72.1102 161.229C72.0237 161.272 71.9804 161.272 71.8939 161.272C71.8507 161.272 71.8507 161.272 71.8074 161.272C71.7642 161.272 71.7209 161.229 71.6777 161.229C71.6344 161.229 71.6344 161.186 71.5912 161.186C71.5479 161.142 71.4614 161.099 71.4181 161.012C71.3749 160.969 71.3316 160.883 71.3316 160.839C71.2884 160.753 71.2884 160.623 71.2451 160.537C71.2451 160.45 71.2451 160.364 71.2451 160.234C71.2451 160.147 71.2884 160.061 71.3316 159.974C71.3749 159.931 71.4181 159.844 71.4181 159.801C71.5046 159.715 71.5479 159.671 71.6344 159.585C71.8507 159.455 71.9804 159.239 72.067 159.022C72.1535 158.979 72.2832 158.893 72.3697 158.849C72.4562 158.806 72.586 158.806 72.6725 158.763C72.7158 158.763 72.8023 158.763 72.8455 158.763H72.8888C72.932 158.763 72.9753 158.806 73.0186 158.849C73.0618 158.893 73.1051 158.936 73.1483 158.979C73.1916 159.022 73.1916 159.066 73.1916 159.109C73.2348 159.196 73.2348 159.282 73.2781 159.369C73.2781 159.498 73.2781 159.585 73.2781 159.715C73.2348 159.844 73.2348 159.974 73.1916 160.104C73.1051 160.234 73.0618 160.407 72.932 160.537C72.8455 160.666 72.6725 160.796 72.4995 160.969ZM69.9907 148.813C69.9907 148.856 69.9907 148.856 69.9907 148.813C70.034 148.9 70.034 148.986 70.0772 149.073V149.116C70.0772 149.159 70.0772 149.159 70.0772 149.202C69.6447 149.505 69.3852 149.981 69.4284 150.457C69.3852 150.457 69.3419 150.5 69.3419 150.5C69.2987 150.5 69.2554 150.543 69.2554 150.543C69.1256 150.587 68.9959 150.63 68.8661 150.673C68.8229 150.673 68.7364 150.717 68.6931 150.717C68.6931 150.717 68.6931 150.717 68.6498 150.717H68.6066H68.5633C68.5201 150.717 68.4336 150.717 68.3903 150.717C68.7796 149.895 69.5582 149.332 69.8177 148.467L69.861 148.51C69.861 148.553 69.9042 148.597 69.9475 148.597C69.9042 148.727 69.9475 148.77 69.9907 148.813ZM57.0144 146.131C57.0144 146.174 57.0144 146.174 57.0144 146.217C57.0144 146.304 57.0144 146.434 57.0144 146.52C57.0144 146.607 57.0144 146.737 57.0144 146.823C57.0144 146.866 57.0144 146.91 57.0144 146.953C57.0144 147.083 56.9711 147.169 56.9279 147.299C56.6251 147.559 56.2358 147.775 55.8465 147.861C55.933 147.515 56.1926 147.126 56.3223 146.823C56.4953 146.52 56.7116 146.174 56.9279 145.915C56.9711 146.001 57.0144 146.088 57.0144 146.131ZM54.9814 146.693C54.9814 146.737 54.9382 146.737 54.9382 146.78C54.9382 146.78 54.9382 146.78 54.9382 146.823C54.9382 146.823 54.9382 146.823 54.9382 146.866C54.9382 146.91 54.8949 146.91 54.8949 146.953V146.91C54.8949 146.91 54.8949 146.866 54.9382 146.866C54.9382 146.78 54.9382 146.78 54.9814 146.693C54.9382 146.737 54.9382 146.737 54.9382 146.78C54.9814 146.78 54.9814 146.737 54.9814 146.693ZM66.6601 147.039C66.0113 147.472 65.4058 148.034 64.8002 148.51C64.7137 148.597 64.5407 148.727 64.3677 148.856C64.8002 148.164 65.3625 147.559 65.7951 146.866C66.0978 146.91 66.4006 146.996 66.6601 147.039ZM67.2225 148.856C67.5685 148.424 67.9145 147.991 68.1308 147.429C68.3038 147.515 68.4768 147.602 68.6498 147.688C68.174 148.078 67.6982 148.467 67.2225 148.856ZM67.0062 150.717C66.9629 150.717 66.9197 150.717 66.9197 150.717C66.9629 150.673 67.0062 150.673 67.0494 150.63C67.0062 150.63 67.0062 150.673 67.0062 150.717ZM62.4212 149.938C62.3779 150.068 62.3779 150.154 62.4212 150.241C62.1184 150.197 61.7724 150.111 61.4696 150.068C61.9454 149.765 62.3779 149.375 62.8105 149.029C62.6375 149.332 62.5077 149.635 62.4212 149.938ZM65.0597 149.938C65.0165 150.154 64.9732 150.414 65.0165 150.63C64.7137 150.587 64.4542 150.543 64.1514 150.5C64.4974 150.37 64.8002 150.111 65.0597 149.938ZM63.8053 146.477C63.5891 146.65 63.3295 146.866 63.1133 147.039C63.243 146.823 63.3728 146.607 63.5026 146.434C63.5891 146.434 63.7188 146.434 63.8053 146.477ZM60.0422 146.996C59.7394 147.256 59.4366 147.515 59.0906 147.775C59.1339 147.602 59.1771 147.472 59.1771 147.299C59.4799 146.866 59.8259 146.477 60.172 146.088C60.2585 146.001 60.3017 145.871 60.345 145.785C60.4747 145.828 60.6478 145.828 60.7775 145.871C60.518 146.261 60.3017 146.607 60.0422 146.996ZM59.3069 152.75C59.5664 152.36 59.8259 151.971 60.1287 151.582C62.5077 152.058 64.8867 152.447 67.309 152.62C67.482 152.62 67.655 152.577 67.7848 152.533C68.4768 152.577 69.1689 152.49 69.7745 152.231C69.7312 152.62 69.6447 153.009 69.6014 153.399C69.1689 155.432 68.5201 157.422 67.828 159.412C67.4387 160.58 67.0494 161.705 66.6169 162.873C63.5458 160.666 59.9557 159.282 56.4088 157.941C56.2358 157.854 56.0195 157.811 55.8465 157.725C57.0144 156.081 58.139 154.394 59.3069 152.75ZM54.6354 159.585C57.5767 160.71 60.5613 161.748 63.2863 163.305C64.1946 163.824 65.0597 164.387 65.8383 164.992C64.4974 168.583 63.07 172.13 61.5994 175.678C60.172 179.095 58.7446 182.513 57.3172 185.887C57.0144 186.017 56.7549 186.19 56.4953 186.363C56.3656 186.45 56.2358 186.579 56.1493 186.666C54.9382 187.358 54.3759 188.872 54.4191 190.213C51.9969 187.488 49.5314 184.762 47.1524 181.994C45.8547 180.523 44.5571 179.052 43.2595 177.581C43.9948 176.976 44.6003 176.154 44.9031 175.288C45.0761 174.812 45.1194 174.293 45.1194 173.774C45.3357 173.471 45.5087 173.169 45.725 172.866C48.6663 168.453 51.6508 163.997 54.6354 159.585ZM41.3563 172.693C41.3563 172.693 41.4428 172.649 41.486 172.649H41.5293C41.6158 172.606 41.659 172.606 41.7455 172.606C41.7455 172.606 41.7455 172.606 41.7888 172.606C41.7455 172.606 41.7455 172.606 41.7023 172.606C41.7455 172.606 41.8321 172.606 41.8753 172.606C41.9186 172.606 41.9618 172.606 42.0483 172.606C42.1348 172.606 42.2213 172.649 42.2646 172.693C42.3079 172.736 42.3511 172.736 42.3944 172.779L42.3511 172.736C42.3511 172.736 42.3944 172.779 42.4376 172.779C42.4809 172.823 42.5241 172.866 42.5241 172.866C42.5674 172.909 42.5674 172.909 42.6106 172.952C42.1348 173.731 41.6158 174.466 41.14 175.245C40.7939 174.856 40.4479 174.466 40.1019 174.034C40.1019 174.034 40.1019 173.991 40.1451 173.991C40.2316 173.861 40.3181 173.731 40.4047 173.601L40.3614 173.644C40.4047 173.601 40.4047 173.601 40.4047 173.558C40.4047 173.558 40.4047 173.558 40.4047 173.515L40.4479 173.471C40.4479 173.428 40.4912 173.428 40.4912 173.385C40.6209 173.255 40.7507 173.125 40.8805 172.996L40.9237 172.952C40.967 172.909 41.0535 172.866 41.0967 172.823C41.2265 172.736 41.2697 172.693 41.3563 172.693ZM26.4335 162.267C26.3469 162.31 26.2604 162.397 26.2172 162.44C26.1307 162.483 26.0442 162.57 25.9577 162.613C25.8711 162.656 25.7846 162.7 25.6981 162.743C25.6549 162.743 25.6549 162.743 25.6116 162.786C25.4819 162.829 25.3521 162.873 25.2223 162.873C25.1358 162.873 25.0926 162.873 25.0061 162.873C24.9628 162.873 24.9195 162.873 24.833 162.829C24.833 162.829 24.833 162.829 24.7898 162.829C24.7465 162.829 24.7465 162.786 24.7033 162.786C24.66 162.743 24.5735 162.7 24.5303 162.613L24.487 162.57C24.4437 162.527 24.4005 162.44 24.4005 162.354C24.4005 162.31 24.3572 162.267 24.3572 162.224C24.3572 162.18 24.314 162.094 24.314 162.051C24.314 161.878 24.314 161.748 24.314 161.575C24.314 161.445 24.3572 161.359 24.4005 161.229C24.4005 161.186 24.4437 161.099 24.4437 161.056C24.7465 161.012 25.0493 160.883 25.2223 160.623C25.2656 160.666 25.3088 160.71 25.3521 160.753C25.7414 161.229 26.1307 161.705 26.52 162.18C26.52 162.18 26.52 162.18 26.4767 162.224C26.4767 162.224 26.4335 162.224 26.4335 162.267ZM15.144 154.61C15.1008 154.61 15.1008 154.61 15.0575 154.61C15.4036 154.48 15.7496 154.264 16.0524 154.091C16.0091 154.264 16.0524 154.437 16.1389 154.61C16.1389 154.61 16.0956 154.61 16.0524 154.61C16.0956 154.61 16.0956 154.61 16.1389 154.61C16.1389 154.61 16.1389 154.61 16.0956 154.61H16.0524H16.0091C15.7928 154.61 15.4901 154.61 15.144 154.61ZM12.7218 150.587C12.5488 150.76 12.3325 150.89 12.2027 151.019C11.8567 151.279 11.5107 151.495 11.1646 151.755C11.5539 151.365 11.9864 150.976 12.2027 150.5C12.3757 150.5 12.5488 150.543 12.7218 150.587ZM16.7444 151.798C16.7877 151.841 16.8742 151.885 16.9175 151.928C16.9607 151.928 16.9607 151.971 17.004 151.971C17.004 151.971 17.004 151.971 17.0472 152.014C16.7012 152.231 16.3552 152.447 16.0091 152.663C16.2254 152.404 16.5282 152.101 16.7444 151.798ZM13.3706 152.447C13.4138 152.404 13.4571 152.36 13.5004 152.317C13.8896 151.885 14.3222 151.452 14.7115 150.976C14.8845 151.019 15.1008 151.063 15.2738 151.106C14.625 151.495 14.0194 152.014 13.3706 152.447ZM9.17491 151.106C8.82887 151.322 8.48283 151.582 8.1368 151.798C8.52609 151.236 9.00189 150.673 9.39118 150.111C9.43443 150.068 9.43443 150.024 9.47769 149.938C9.82372 150.024 10.1698 150.068 10.4725 150.154C10.04 150.457 9.60745 150.803 9.17491 151.106ZM7.09869 152.274C7.05544 152.274 7.05544 152.274 7.09869 152.274V152.274ZM6.79591 149.635C6.83916 149.548 6.88242 149.462 6.92567 149.375C7.1852 149.419 7.48798 149.505 7.74751 149.548C7.22845 149.895 6.75265 150.37 6.27685 150.717C5.93082 151.019 5.54153 151.279 5.15224 151.538C5.62804 150.89 6.32011 150.284 6.79591 149.635ZM3.33555 150.89C3.42206 150.76 3.55182 150.587 3.63833 150.5C3.98437 150.024 4.41691 149.635 4.8062 149.202C4.84946 149.159 4.89271 149.116 4.89271 149.029C5.06573 149.073 5.23875 149.116 5.41176 149.116C4.76295 149.722 4.11413 150.414 3.33555 150.89ZM3.33555 152.75C3.29229 152.663 3.24904 152.577 3.16253 152.49C3.11928 152.49 3.11928 152.447 3.07602 152.447C3.20579 152.404 3.33555 152.36 3.42206 152.274C3.3788 152.447 3.3788 152.62 3.46531 152.793C3.42206 152.793 3.3788 152.793 3.33555 152.75ZM6.36336 152.317C6.32011 152.447 6.27685 152.533 6.2336 152.663C6.14709 152.88 6.2336 153.139 6.40662 153.312C6.44987 153.355 6.49313 153.399 6.53638 153.442C6.06058 153.355 5.54153 153.226 5.06573 153.139C5.54153 152.923 5.97407 152.62 6.36336 152.317ZM8.82887 152.923C8.82887 153.096 8.82887 153.269 8.82887 153.442C8.87212 153.788 9.30467 154.004 9.60745 153.875C10.2563 153.701 10.8186 153.399 11.4241 153.053C11.3376 153.269 11.2944 153.485 11.2944 153.701C11.2944 154.177 11.7269 154.394 12.1162 154.307C12.6353 154.221 13.1111 154.004 13.5869 153.788C13.5004 154.048 13.5436 154.35 13.7166 154.61C11.5539 154.394 9.43443 154.004 7.27171 153.572C7.79076 153.528 8.35307 153.182 8.82887 152.923ZM6.19035 187.877C3.72484 176.802 2.08117 165.382 1.99466 154.004C2.08117 154.134 2.25419 154.264 2.47046 154.307C6.57964 155.129 10.6888 156.081 14.8845 156.384C15.0575 156.384 15.2305 156.34 15.3603 156.297C16.3552 156.34 17.35 156.167 18.1286 155.605C18.4746 155.345 18.7341 155.043 18.9072 154.74C20.7671 155.259 22.3243 156.903 23.6219 158.59C23.5354 158.633 23.4489 158.676 23.4056 158.763C22.3243 159.801 21.7187 161.532 22.281 163.002C22.5405 163.695 23.0163 164.344 23.7084 164.69C24.4437 165.079 25.3088 165.122 26.0874 164.863C26.7362 164.646 27.3418 164.3 27.9041 163.824C29.5045 165.728 31.0617 167.631 32.7486 169.491C34.3923 171.308 35.9927 173.125 37.5931 174.942C37.5499 175.375 37.5931 175.764 37.6796 176.197C37.8526 177.062 38.3717 177.884 39.107 178.317C35.4304 183.984 31.8403 189.737 28.2934 195.491C25.6981 199.687 23.2326 203.97 20.6806 208.166C19.4262 210.286 18.1286 212.362 17.004 214.569C16.4417 215.65 16.0091 216.775 15.5333 217.9C15.2305 217.035 14.9278 216.126 14.625 215.261C15.2738 215.131 15.8794 214.828 16.3984 214.439C17.2202 213.79 17.7826 212.838 18.1718 211.843C18.4746 211.065 18.5179 210.156 18.3016 209.334C17.9556 207.863 16.5714 206.782 15.0575 206.782C13.6734 206.782 12.592 207.561 11.8134 208.599C11.4241 207.387 11.3809 206.046 10.9916 204.835C9.21816 199.168 7.44473 193.631 6.19035 187.877ZM13.8464 213.141C13.8464 213.098 13.8464 213.098 13.8464 213.141C13.7599 212.925 13.7166 212.709 13.6301 212.535C13.4571 212.06 13.2841 211.67 13.0678 211.238C13.3706 210.978 13.4571 210.502 13.3273 210.113L13.3706 210.07C13.4138 209.983 13.6301 209.767 13.4138 210.026C13.5436 209.897 13.6301 209.767 13.7599 209.637C13.8031 209.594 13.8896 209.551 13.9329 209.464C13.9329 209.464 13.9762 209.464 13.9762 209.421C14.1059 209.334 14.1924 209.291 14.3222 209.204C14.3654 209.161 14.4087 209.161 14.4952 209.118C14.625 209.075 14.7547 209.031 14.8845 208.988C14.9278 208.988 14.9278 208.988 14.971 208.988C15.0143 208.988 15.1008 208.988 15.144 208.988H15.1873C15.144 208.988 15.144 208.988 15.1008 208.988C15.144 208.988 15.1873 208.988 15.1873 208.988C15.2738 208.988 15.3603 209.031 15.2738 209.031C15.317 209.031 15.3603 209.031 15.4036 209.075C15.4468 209.075 15.4901 209.118 15.4901 209.118C15.4901 209.118 15.6198 209.161 15.7063 209.248C15.7496 209.291 15.7928 209.334 15.8794 209.377L15.9226 209.421C15.9659 209.507 16.0524 209.594 16.0956 209.724C16.0956 209.767 16.1389 209.81 16.1389 209.853C16.1389 209.897 16.1821 209.983 16.1821 210.07C16.1821 210.199 16.1821 210.329 16.1821 210.459C16.1821 210.502 16.1821 210.546 16.1821 210.589C16.1821 210.589 16.1821 210.589 16.1821 210.546C16.1821 210.589 16.1821 210.589 16.1821 210.632C16.1821 210.632 16.1821 210.632 16.1821 210.675C16.1821 210.719 16.1821 210.762 16.1389 210.762C16.0956 210.892 16.0956 211.021 16.0524 211.151C16.0091 211.238 16.0091 211.324 15.9659 211.411C15.9659 211.454 15.9226 211.497 15.9226 211.497V211.454C15.8361 211.627 15.7496 211.8 15.6631 211.93C15.6198 212.016 15.5333 212.146 15.4901 212.233C15.4468 212.276 15.4468 212.319 15.4036 212.362C15.2738 212.492 15.144 212.665 15.0143 212.795C15.0143 212.795 15.0143 212.795 14.971 212.838C14.8845 212.882 14.798 212.968 14.7115 213.011C14.6682 213.055 14.5817 213.098 14.4952 213.098C14.4087 213.141 14.2789 213.141 14.1924 213.184C14.2357 213.184 14.2357 213.184 14.1492 213.228C14.1059 213.228 14.1059 213.228 14.0627 213.228H14.0194C14.0194 213.228 14.0194 213.228 14.0627 213.228C13.9762 213.141 13.9329 213.141 13.8464 213.141C13.8896 213.141 13.8464 213.141 13.8464 213.141ZM14.3654 209.118C14.3654 209.118 14.4087 209.075 14.452 209.075C14.4087 209.118 14.3654 209.118 14.3654 209.118ZM14.7547 208.988C14.7547 208.988 14.798 208.988 14.8845 208.988C14.798 208.988 14.7547 208.988 14.7547 208.988ZM15.4036 208.988C15.4036 208.988 15.4468 208.988 15.4468 209.031C15.4036 209.031 15.4036 208.988 15.4036 208.988ZM15.7496 209.204C15.7496 209.204 15.7928 209.248 15.7496 209.204C15.7496 209.204 15.7928 209.248 15.7496 209.204ZM16.0091 209.551C16.0091 209.551 16.0524 209.594 16.0524 209.637C16.0524 209.594 16.0091 209.551 16.0091 209.551ZM41.4428 259.776C39.6261 257.872 37.5931 256.012 35.9927 253.936C35.6467 253.503 35.5602 253.07 35.3439 252.595C35.0844 252.119 34.7383 251.729 34.3923 251.34C33.3974 250.129 32.4026 248.917 31.451 247.706C29.5478 245.197 27.7743 242.601 26.0874 239.919C26.9093 239.357 27.7311 238.838 28.5097 238.275C31.451 236.329 34.3923 234.339 37.3336 232.392C36.8145 233.863 36.4252 235.377 35.9062 236.848C35.9062 236.848 35.9062 236.848 35.8629 236.848C35.5169 236.848 35.2574 236.978 35.0844 237.151C34.6951 236.761 33.9597 236.545 33.4839 236.934C32.5323 237.626 31.7538 238.535 31.7538 239.789C31.7538 240.741 32.1863 241.693 32.8784 242.342C34.2625 243.683 36.6415 244.202 38.3284 243.207C39.6693 242.428 40.1451 240.741 39.6693 239.314C39.4098 238.578 38.9773 237.973 38.3717 237.583C38.588 236.848 38.8475 236.112 39.0638 235.377C39.6261 233.473 40.3181 231.657 41.0967 229.84C43.4325 228.282 45.7682 226.725 48.0607 225.167C47.9742 226.336 47.9309 227.46 47.9309 228.628C47.9309 228.758 47.9309 228.845 47.9309 228.974C47.8012 229.018 47.6714 229.104 47.5417 229.191C47.1524 228.801 46.417 228.585 45.9412 228.974C44.9896 229.667 44.2111 230.575 44.2111 231.83C44.2111 232.781 44.6436 233.733 45.3357 234.382C46.7198 235.723 49.0988 236.242 50.7857 235.247C52.1266 234.468 52.6024 232.781 52.1266 231.354C51.7806 230.315 51.0453 229.58 50.0937 229.191C50.0072 227.331 50.1369 225.427 50.3965 223.567C50.6992 223.351 51.0453 223.134 51.348 222.918C56.2358 219.63 61.1236 216.342 66.0113 213.098C67.2657 212.233 68.5633 211.411 69.8177 210.546C70.7261 211.54 71.5912 212.579 72.4995 213.574C72.24 214.006 72.067 214.482 72.067 215.045C72.067 215.996 72.4995 216.948 73.1916 217.597C74.5757 218.938 76.9547 219.457 78.6416 218.462C79.9825 217.683 80.4583 215.996 79.9825 214.569C79.4202 212.968 77.8631 211.973 76.1761 212.103C75.8301 212.103 75.5706 212.233 75.3976 212.406C75.1813 212.189 74.8352 212.016 74.4892 211.973C73.6241 211.021 72.8023 210.026 71.9372 209.075C74.4892 207.344 77.0845 205.614 79.6365 203.927C83.0103 201.677 86.3409 199.428 89.7148 197.178C89.4553 198.735 89.3255 200.336 89.412 201.937C89.1525 201.893 88.8497 201.937 88.6334 202.11C87.6818 202.802 86.9033 203.71 86.9033 204.965C86.9033 205.917 87.3358 206.868 88.0279 207.517C89.412 208.858 91.791 209.377 93.4779 208.382C94.8188 207.604 95.2946 205.917 94.8188 204.489C94.343 203.061 93.0454 202.153 91.618 202.023C91.5315 199.774 91.791 197.567 92.3533 195.404C93.1319 194.885 93.8672 194.366 94.6458 193.89C94.8621 194.107 95.0784 194.366 95.2514 194.582C96.0732 195.534 96.895 196.529 97.6736 197.481C100.053 200.379 102.388 203.278 104.724 206.219C107.19 209.291 109.655 212.362 112.121 215.477C113.678 217.467 115.235 219.414 116.835 221.404C116.965 221.577 117.095 221.75 117.225 221.923C118.133 223.091 118.393 224.562 118.609 225.989C119.171 229.407 119.041 232.911 119.041 236.329C119.041 237.107 119.041 237.843 119.041 238.621C118.998 238.665 118.955 238.665 118.912 238.708C112.769 244.851 106.844 251.253 100.874 257.569C94.9053 263.929 88.9362 270.245 82.6643 276.258C80.9774 277.859 79.3337 279.459 77.8198 281.233C76.6952 282.531 75.6138 283.958 74.2729 285.083C66.7034 281.017 59.5664 276.171 52.9052 270.591C48.969 267.173 45.1194 263.583 41.4428 259.776ZM144.475 295.855C142.096 296.72 139.63 297.412 137.122 297.975C138.16 296.72 139.155 295.422 139.89 293.995C143.35 293.692 146.854 293.778 150.271 293.389C148.411 294.341 146.465 295.119 144.475 295.855ZM145.816 270.634C147.806 271.889 150.185 272.235 152.434 272.451C154.683 272.624 156.932 272.667 159.182 272.84C157.408 277.469 157.062 282.487 155.505 287.203C155.116 288.328 154.856 289.496 154.164 290.447C154.121 290.491 154.077 290.577 153.991 290.62C153.818 290.577 153.645 290.577 153.429 290.62C148.887 291.745 144.172 291.486 139.544 291.875C139.457 291.832 139.328 291.832 139.241 291.832C138.29 291.745 137.381 291.832 136.559 292.307C136.084 292.567 135.911 293.173 136.127 293.649C136.343 294.124 136.732 294.297 137.208 294.297C136.213 295.812 134.959 297.196 133.748 298.58C126.524 299.705 119.041 299.489 111.904 298.191C106.887 297.282 101.956 296.071 97.1546 294.6C97.9332 289.971 99.274 285.429 101.004 281.017C102.605 276.95 104.594 272.97 107.06 269.336C109.439 265.789 112.38 262.458 115.927 260.035C119.301 257.699 123.107 256.185 127.043 255.06C131.455 253.806 136.04 253.07 140.582 252.465C140.279 253.287 140.106 254.109 140.063 254.974C139.933 256.921 140.712 258.781 142.009 260.208C142.572 260.814 143.264 261.463 143.999 261.982C142.745 265.097 142.485 268.601 145.816 270.634ZM141.361 250.734C141.101 250.388 140.669 250.302 140.236 250.345C131.888 251.47 123.194 252.941 115.927 257.44C114.413 258.391 112.986 259.473 111.645 260.641C113.808 256.921 116.057 253.243 119.647 250.864C121.291 249.783 123.064 248.961 124.837 248.182C126.524 247.447 128.255 246.754 130.028 246.149C133.618 244.937 137.338 244.116 141.058 243.596C143.869 243.207 146.724 242.947 149.579 242.818C147.892 243.769 146.292 244.937 144.864 246.322C143.567 247.576 142.269 249.09 141.361 250.734ZM264.896 180.263C263.641 182.037 263.036 184.157 262.56 186.233C261.349 191.727 261.219 197.394 260.743 202.975C260.224 208.729 258.883 214.396 258.018 220.106C257.629 222.702 257.283 225.341 257.153 227.979C257.066 229.969 257.066 232.003 256.98 233.993C256.807 237.583 256.374 241.736 253.779 244.332C253.044 245.067 252.265 245.543 251.357 246.019C250.146 246.668 248.891 247.274 247.594 247.793C245.085 248.744 242.533 249.437 239.938 250.085C236.65 250.864 233.363 251.643 230.119 252.378C233.925 251.124 237.818 249.653 241.279 247.62C244.436 245.759 247.204 243.25 249.108 240.092C251.357 236.372 252.265 232.089 253.174 227.893C254.298 222.831 255.12 217.727 255.812 212.622C256.634 206.133 257.11 199.557 257.369 193.025C257.413 193.025 257.413 192.982 257.456 192.982C258.278 192.549 258.061 191.554 257.456 191.165C257.542 188.137 257.629 185.065 257.629 182.037C257.629 180.739 257.629 179.441 257.629 178.187C257.629 176.802 255.466 176.802 255.466 178.187C255.466 182.686 255.38 187.185 255.25 191.641C250.708 193.804 245.907 195.404 240.933 196.399C235.612 197.481 230.032 197.957 224.626 197.135C223.112 196.919 221.641 196.616 220.17 196.27C220.387 193.198 220.473 190.17 220.214 187.142C220.17 186.579 219.738 186.06 219.132 186.06C218.57 186.06 218.008 186.536 218.051 187.142C218.31 190.04 218.224 192.939 218.051 195.837C217.143 195.621 216.277 195.448 215.369 195.275C214.807 195.145 214.201 195.448 214.028 196.01C213.898 196.529 214.201 197.221 214.764 197.351C215.802 197.567 216.797 197.784 217.835 198C217.748 199.125 217.618 200.293 217.489 201.418C216.883 206.436 216.061 211.411 215.11 216.386C214.677 218.592 214.245 220.798 213.769 222.961C213.682 223.394 213.596 223.87 213.466 224.302C213.423 224.475 213.379 224.648 213.293 224.778C213.293 224.778 213.25 224.908 213.206 224.951C213.163 225.038 213.12 225.167 213.033 225.254C212.817 225.643 212.731 225.73 212.385 226.076C211.995 226.509 211.519 226.941 211.044 227.287C209.097 228.801 206.761 229.753 204.469 230.618C201.787 231.657 199.062 232.565 196.294 233.387C189.676 235.29 182.885 236.502 176.181 238.102C174.84 238.405 175.402 240.525 176.743 240.179C182.842 238.708 189.027 237.54 195.083 235.939C197.981 235.161 200.836 234.252 203.69 233.171C206.199 232.262 208.708 231.31 211 229.883C212.817 228.758 214.677 227.201 215.326 225.124C215.629 224.173 215.802 223.134 215.975 222.139C216.191 221.015 216.407 219.933 216.667 218.808C217.662 213.747 218.57 208.642 219.219 203.537C219.435 201.807 219.651 200.077 219.824 198.346C220.906 198.562 222.03 198.822 223.155 198.995C226.01 199.471 228.908 199.687 231.806 199.601C237.472 199.384 243.095 198.303 248.502 196.529C250.708 195.794 252.871 194.972 254.99 193.977C254.774 198.779 254.471 203.581 253.952 208.382C253.433 213.357 252.698 218.289 251.746 223.178C251.27 225.687 250.708 228.196 250.102 230.705C249.627 232.695 249.108 234.642 248.286 236.502C246.902 239.616 244.782 242.342 242.014 244.375C238.77 246.711 234.963 248.269 231.244 249.566C222.982 252.508 214.288 254.109 205.594 255.017C196.899 255.926 188.162 256.099 179.468 256.012C178.473 256.012 177.478 255.969 176.483 255.969C175.964 255.969 175.661 256.228 175.532 256.574C175.186 256.315 174.84 256.099 174.45 255.882C173.931 255.623 173.282 255.753 172.98 256.272C172.72 256.748 172.85 257.483 173.369 257.743C173.629 257.872 173.888 258.002 174.148 258.175C174.148 258.175 174.234 258.218 174.277 258.262C174.321 258.305 174.364 258.348 174.364 258.348C174.45 258.435 174.537 258.521 174.623 258.608C174.623 258.608 174.667 258.651 174.71 258.694C174.71 258.737 174.753 258.737 174.753 258.781C174.796 258.867 174.883 258.954 174.926 259.04C174.926 259.084 174.969 259.127 174.969 259.17C175.013 259.257 175.013 259.386 175.056 259.473C175.056 259.516 175.056 259.516 175.056 259.559C175.056 259.646 175.056 259.776 175.056 259.862C175.056 259.906 175.056 259.906 175.056 259.949C175.013 260.079 175.013 260.165 174.969 260.295C174.969 260.338 174.926 260.425 174.926 260.468C174.883 260.511 174.84 260.598 174.84 260.641C174.796 260.727 174.71 260.857 174.667 260.944C174.623 260.987 174.58 261.03 174.58 261.074C174.45 261.247 174.277 261.42 174.104 261.549C174.061 261.593 173.975 261.679 173.931 261.679C173.888 261.679 173.888 261.722 173.845 261.722C173.758 261.766 173.715 261.809 173.629 261.852C173.542 261.896 173.456 261.982 173.326 262.025C173.283 262.069 173.196 262.069 173.153 262.112L173.066 262.155H173.023C172.98 262.155 172.893 262.198 172.85 262.242C172.85 262.242 172.85 262.242 172.807 262.242C172.374 262.025 171.898 262.155 171.596 262.458C171.379 262.458 171.12 262.458 170.904 262.415C170.774 262.415 170.774 262.415 170.557 262.371C170.428 262.328 170.255 262.328 170.125 262.285C169.822 262.198 169.476 262.112 169.26 261.982C168.005 261.463 166.967 260.511 166.319 259.3C166.059 258.781 165.324 258.651 164.848 258.911C164.329 259.213 164.199 259.862 164.459 260.381C165.453 262.371 167.443 263.842 169.649 264.405C169.303 264.664 168.914 264.88 168.525 265.097C168.092 265.313 167.443 265.529 166.838 265.659C166.319 265.789 165.843 265.832 165.151 265.832C162.815 265.789 160.522 264.794 158.965 262.934C158.619 262.544 158.187 261.852 157.927 261.203C157.97 261.29 157.841 260.901 157.797 260.857C157.754 260.684 157.668 260.511 157.624 260.338C157.538 259.992 157.451 259.516 157.408 259.3C157.365 258.737 156.976 258.218 156.327 258.218C155.808 258.218 155.202 258.694 155.245 259.3C155.462 261.16 156.154 262.847 157.235 264.232C154.986 263.885 152.131 263.885 150.66 261.852C149.19 259.862 149.536 257.05 150.098 254.801C150.401 253.59 148.8 252.984 148.108 253.979C146.94 255.666 146.119 257.526 145.21 259.386C145.037 259.473 144.908 259.603 144.778 259.819C144.778 259.819 144.778 259.862 144.735 259.862C144.735 259.862 144.735 259.862 144.691 259.862C144.129 259.43 143.567 258.911 143.134 258.348C142.226 257.31 141.88 256.012 142.009 254.714C142.269 251.902 144.432 249.393 146.421 247.533C148.238 245.846 150.314 244.548 152.52 243.51C152.823 243.856 153.126 244.159 153.472 244.462C154.467 245.413 156.024 243.899 154.986 242.947C154.899 242.861 154.77 242.731 154.683 242.645C157.451 241.65 160.393 241.087 163.291 240.741C166.838 240.352 170.384 240.352 173.931 240.525C175.315 240.611 175.315 238.448 173.931 238.362C167.27 238.016 160.349 238.319 153.991 240.568C153.818 240.482 153.645 240.395 153.429 240.438C153.299 240.438 153.126 240.438 152.996 240.438C152.866 240.092 152.737 239.746 152.737 239.357C152.693 237.8 153.818 236.502 154.77 235.42C157.235 232.695 160.003 230.315 162.512 227.633C167.53 222.226 170.86 215.52 173.802 208.815C177.002 201.504 179.857 194.063 182.885 186.666C185.264 180.826 187.686 174.986 190.714 169.405C193.482 164.3 196.77 159.542 200.317 154.956C203.085 154.221 205.723 152.923 207.886 151.019C208.535 150.457 209.14 149.808 209.66 149.116C209.703 149.159 209.746 149.202 209.789 149.289C211.563 151.063 214.115 151.971 216.537 152.404C219.046 152.88 221.684 152.923 224.193 152.447C227.005 151.928 229.557 150.284 231.719 148.467C233.579 146.91 235.439 144.703 236.002 142.281C236.131 142.324 236.261 142.411 236.434 142.454C237.602 142.8 238.856 142.497 239.981 142.064C242.619 140.983 244.869 139.036 246.902 137.046C247.334 136.657 247.724 136.224 248.07 135.792C248.156 135.921 248.286 136.008 248.459 136.095C252.871 138.301 256.504 141.675 259.229 145.698C262.171 150.068 264.03 154.826 265.328 159.888C266.755 165.382 267.491 170.919 267.837 176.586C267.837 176.716 267.837 176.846 267.88 177.019C266.842 178.1 265.761 179.052 264.896 180.263ZM198.759 153.355C197.375 153.615 195.948 153.701 194.52 153.615C193.093 153.485 191.363 152.966 189.892 152.36C186.648 151.063 183.361 148.856 181.414 145.915C180.419 144.357 179.684 142.67 179.252 140.896C178.862 139.296 178.646 137.392 179.468 135.965C180.16 134.753 178.3 133.672 177.608 134.883C177.175 135.662 176.959 136.527 176.829 137.392C175.272 136.916 173.758 136.138 172.547 135.1C171.855 134.494 171.25 133.845 170.817 133.153C170.557 132.807 170.341 132.417 170.125 132.028C169.952 131.682 169.692 131.206 169.649 130.99C168.395 127.918 168.178 124.631 168.784 121.343C169.346 118.401 170.601 115.762 172.331 113.426C173.326 116.498 175.099 119.31 177.132 121.775C178.949 123.982 181.155 126.145 183.75 127.529C183.274 128.567 183.318 129.692 183.491 130.817C183.837 133.283 185.091 135.662 186.908 137.349C188.724 139.036 191.19 140.074 193.655 139.858C195.342 139.728 197.116 139.253 198.457 138.171C200.533 136.441 199.971 133.629 198.63 131.595C197.116 129.303 194.78 127.442 192.228 126.318C190.282 125.496 187.816 125.063 186.086 126.231C185.999 126.231 185.956 126.188 185.87 126.188C183.447 125.236 181.285 123.289 179.554 121.343C177.478 119.007 175.618 116.238 174.537 113.296C174.321 112.691 174.104 112.042 173.975 111.393C174.018 111.35 174.018 111.35 174.061 111.306C176.743 108.365 179.944 105.942 182.971 103.433C185.35 101.486 187.686 99.4098 189.676 97.0737C189.373 97.6794 189.07 98.3283 188.768 98.9339C187.989 100.664 186.951 103.044 187.773 104.904C188.205 105.899 189.243 106.548 190.325 106.461C191.709 106.331 192.834 105.38 193.828 104.515C195.559 102.957 197.159 101.227 198.846 99.6261C199.927 98.5879 201.052 97.5929 202.306 96.8142C202.609 96.6411 202.912 96.4248 203.258 96.2951C203.517 96.1653 203.734 96.0788 204.123 95.9922C204.296 95.949 204.426 95.9057 204.599 95.8624C204.642 95.8624 204.685 95.8624 204.729 95.8624C204.772 95.8624 204.815 95.8624 204.858 95.8624C205.031 95.8624 205.161 95.8624 205.334 95.8624C205.377 95.8624 205.377 95.8624 205.421 95.8624L205.637 95.9057C205.983 95.9922 206.329 95.9057 206.632 95.7327C206.848 96.5114 207.194 97.2468 207.713 97.8957C208.189 98.5446 208.881 99.0205 209.746 99.0205C210.481 99.0205 211.13 98.6311 211.736 98.1985C213.293 97.0305 214.547 95.6029 216.104 94.6079C217.575 93.6562 219.132 93.2668 220.862 92.9208C223.501 92.4449 226.269 92.2286 229.038 92.3151C229.946 92.3584 230.854 92.4016 231.719 92.5314C232.325 92.6179 232.974 92.7477 233.579 92.791C234.531 92.8342 235.482 92.5747 236.348 92.1853C238.164 91.3634 239.505 89.7195 240.413 87.9891C243.182 82.8411 243.139 76.3953 242.144 70.7715C242.1 70.5552 242.057 70.3389 242.014 70.1226C244.133 69.3871 246.21 68.5652 248.199 67.527C248.372 67.4404 248.545 67.3107 248.718 67.2241C250.535 71.8097 250.146 76.8279 249.756 81.7163C249.54 81.8029 249.324 81.9326 249.108 82.0624C248.848 81.5433 248.243 81.2405 247.637 81.5866C242.663 84.658 240.154 90.3684 240.976 96.122C241.711 101.14 245.258 106.591 250.751 106.851C251.27 106.894 251.789 106.851 252.308 106.764C254.168 113.383 253.822 120.651 251.27 127.053C250.146 129.908 248.502 132.59 246.383 134.797C244.652 136.614 242.879 138.214 240.803 139.469C240.5 139.685 240.154 139.858 239.808 140.031C239.678 140.118 239.505 140.161 239.375 140.248C239.375 140.248 239.332 140.248 239.332 140.291C239.246 140.334 239.202 140.334 239.116 140.377C238.813 140.507 238.51 140.594 238.207 140.637C238.121 140.637 238.078 140.68 237.991 140.68C237.991 140.68 237.991 140.68 237.948 140.68C237.818 140.68 237.688 140.68 237.559 140.68C237.472 140.68 237.299 140.637 237.299 140.68C237.213 140.68 237.126 140.637 237.083 140.637C237.04 140.637 236.996 140.594 236.953 140.594C236.953 140.594 236.953 140.594 236.91 140.594C236.867 140.55 236.65 140.421 236.65 140.421C236.564 140.377 236.521 140.291 236.434 140.204L236.391 140.161C236.391 140.118 236.304 140.031 236.304 140.031C236.218 139.901 236.131 139.772 236.088 139.642V139.599C236.045 139.469 236.002 139.382 235.958 139.253C235.526 137.955 233.449 138.474 233.882 139.815C234.271 140.983 234.142 142.108 233.623 143.232C233.017 144.53 232.065 145.655 231.027 146.607C229.946 147.602 228.735 148.467 227.437 149.202C226.399 149.808 225.577 150.197 224.453 150.457C224.236 150.5 224.02 150.543 223.76 150.587C223.631 150.63 223.544 150.63 223.414 150.63C223.371 150.63 223.285 150.63 223.241 150.673H223.198C222.679 150.76 222.117 150.803 221.555 150.803C220.387 150.846 219.219 150.803 218.094 150.63C218.094 150.63 218.008 150.63 217.835 150.587C217.705 150.543 217.532 150.543 217.402 150.5C217.099 150.457 216.797 150.37 216.494 150.327C215.931 150.197 215.369 150.024 214.807 149.851C214.547 149.765 214.331 149.678 214.071 149.592H214.028C213.985 149.548 213.898 149.548 213.855 149.505C213.682 149.419 213.552 149.375 213.379 149.289C212.904 149.073 212.471 148.77 212.039 148.467C211.952 148.424 211.909 148.337 211.822 148.294C211.736 148.207 211.649 148.121 211.563 148.034C211.433 147.948 211.346 147.818 211.26 147.732C211.217 147.688 211.087 147.559 211.044 147.515C211.044 147.472 211 147.429 210.957 147.385C211.087 147.126 211.217 146.823 211.346 146.564C211.649 145.785 212.039 144.833 211.995 144.011C211.909 142.93 211.087 142.281 210.179 141.805C209.53 141.459 208.838 141.762 208.578 142.454C207.973 144.098 207.929 145.828 208.535 147.385C208.016 148.164 207.41 148.9 206.718 149.548C205.594 150.63 204.253 151.452 202.782 152.101C202.912 151.712 202.869 151.279 202.566 150.976C202.177 150.587 201.398 150.5 201.052 150.976C200.446 151.755 199.841 152.533 199.235 153.312C199.105 153.269 198.932 153.312 198.759 153.355ZM190.108 103.995C190.065 103.952 190.065 103.995 190.108 103.995V103.995ZM173.888 108.321C173.888 108.278 173.888 108.192 173.931 108.148C174.018 107.586 174.191 106.98 174.364 106.418C174.58 105.812 174.71 105.51 175.013 104.904C175.315 104.341 175.661 103.779 176.051 103.26C176.786 102.265 177.781 101.227 178.819 100.405C181.155 98.5013 184.096 97.3333 187.081 96.7277C183.101 100.967 178.04 104.255 173.888 108.321ZM188.205 127.529C188.292 127.529 188.422 127.529 188.508 127.486C188.768 127.486 188.984 127.486 189.243 127.529C189.114 127.616 188.984 127.745 188.897 127.875C188.205 128.784 188.076 130.081 188.205 131.293C188.205 131.249 188.162 131.163 188.162 131.12C188.162 131.033 188.119 130.947 188.119 130.817C188.119 130.817 188.119 130.73 188.119 130.687C188.076 130.341 188.032 129.995 188.032 129.649C187.989 129.043 187.989 128.437 187.989 127.832C187.989 127.745 187.989 127.659 187.946 127.572C187.989 127.572 188.032 127.529 188.076 127.529C188.205 127.529 188.551 127.529 188.205 127.529ZM191.19 128.091C191.233 128.135 191.406 128.178 191.449 128.178C191.579 128.221 191.709 128.308 191.839 128.351C191.622 128.481 191.449 128.697 191.406 128.957V129C191.276 128.61 191.103 128.221 190.844 127.918C190.974 128.005 191.103 128.048 191.19 128.091ZM197.419 133.672C197.462 133.715 197.462 133.758 197.462 133.845C197.548 134.061 197.592 134.278 197.678 134.494C197.678 134.537 197.721 134.624 197.721 134.667C197.721 134.753 197.721 134.883 197.721 134.926C197.721 135.013 197.721 135.143 197.721 135.229C197.721 135.273 197.721 135.273 197.721 135.273C197.721 135.273 197.721 135.273 197.721 135.316C197.678 135.402 197.678 135.489 197.635 135.575C197.635 135.619 197.592 135.662 197.592 135.705C197.548 135.792 197.505 135.878 197.462 135.965C197.419 136.008 197.375 136.095 197.332 136.138C197.202 136.268 197.072 136.397 196.943 136.484C196.899 136.527 196.813 136.614 196.726 136.614C196.597 136.7 196.51 136.743 196.38 136.787C196.294 136.83 196.164 136.873 196.078 136.96C196.078 136.96 196.034 137.003 195.948 137.003C196.77 135.792 196.986 134.191 196.856 132.677C196.986 132.893 197.116 133.066 197.202 133.283C197.289 133.412 197.332 133.542 197.419 133.672ZM197.419 133.672C197.462 133.758 197.462 133.845 197.419 133.672V133.672ZM190.974 136.138C190.844 136.224 190.93 136.181 190.974 136.138V136.138ZM191.622 132.634C191.622 132.893 191.622 133.196 191.622 133.456C191.622 133.845 191.579 134.191 191.536 134.58C191.536 134.624 191.536 134.624 191.536 134.624V134.667C191.536 134.753 191.493 134.84 191.493 134.926C191.493 135.013 191.449 135.056 191.449 135.143C191.363 134.97 191.276 134.753 191.233 134.537C191.406 133.932 191.536 133.239 191.622 132.634ZM185.524 129.259C185.61 129.303 185.74 129.303 185.87 129.303C185.913 130.384 186.043 131.422 186.302 132.461C186.345 132.59 186.389 132.763 186.432 132.893C186.389 132.763 186.302 132.677 186.259 132.547C185.826 131.552 185.567 130.427 185.567 129.346C185.524 129.303 185.524 129.259 185.524 129.259ZM189.719 136.614C189.719 136.657 189.762 136.657 189.762 136.7C189.719 136.7 189.719 136.657 189.676 136.657C189.676 136.614 189.719 136.614 189.719 136.614ZM193.18 136.743C193.396 137.046 193.655 137.306 194.001 137.479C193.569 137.522 193.093 137.565 192.661 137.522C192.834 137.306 193.007 137.046 193.18 136.743ZM194.131 129.779C194.045 129.995 194.045 130.211 194.131 130.384C194.52 131.379 194.693 132.374 194.737 133.369C194.737 133.932 194.737 134.321 194.607 134.84C194.564 134.797 194.564 134.71 194.52 134.667C194.52 134.667 194.477 134.58 194.477 134.537C194.477 134.494 194.434 134.407 194.434 134.364C194.391 134.278 194.391 134.191 194.347 134.105C194.218 133.758 194.131 133.369 194.001 133.023C193.958 132.763 193.872 132.504 193.828 132.244C193.785 131.293 193.742 130.298 193.655 129.346C193.742 129.519 193.958 129.649 194.131 129.779ZM211.087 84.5283C211.13 84.1389 211.13 83.7496 211.13 83.3602C211.303 83.0574 211.26 82.6681 211.13 82.322C210.265 80.2455 208.448 78.9477 206.459 78.169C207.67 77.9527 208.924 77.7364 210.135 77.5201C212.687 77.0875 215.196 76.5684 217.748 76.0492C218.051 76.4818 218.743 76.6981 219.176 76.3521C219.651 76.006 220.17 75.7032 220.689 75.4003C223.112 74.8812 225.577 74.3188 227.999 73.7564C229.859 73.843 231.676 74.3188 233.363 75.184C234.661 75.8762 235.829 76.7414 236.823 77.8229C237.775 78.8612 239.289 77.3038 238.337 76.3088C236.78 74.6216 234.834 73.4104 232.757 72.5884C234.098 72.2423 235.439 71.8962 236.78 71.5502C237.861 71.2906 238.943 70.9878 239.981 70.6417C240.933 75.5301 241.019 80.8511 239.159 85.48C238.856 86.3019 238.337 87.2537 237.775 88.0323C237.732 88.0756 237.688 88.1621 237.645 88.2054C237.645 88.2054 237.732 88.1189 237.645 88.2054C237.559 88.2919 237.515 88.3784 237.429 88.4649C237.256 88.638 237.126 88.811 236.953 88.9841C236.823 89.1138 236.65 89.2436 236.521 89.3734C236.477 89.4167 236.391 89.5032 236.348 89.5032C236.261 89.5464 236.218 89.5897 236.131 89.6762C235.958 89.806 235.785 89.8925 235.612 89.9791C235.526 90.0223 235.439 90.0656 235.353 90.1088C235.309 90.1088 235.309 90.1088 235.309 90.1521C235.309 90.1521 235.266 90.1521 235.223 90.1954C235.05 90.2386 234.877 90.3251 234.661 90.3684C234.574 90.4117 234.488 90.4117 234.401 90.4117C234.358 90.4117 234.271 90.4549 234.185 90.4549C234.142 90.4549 234.012 90.4549 233.969 90.4549C233.882 90.4549 233.796 90.4549 233.709 90.4549C233.536 90.4549 233.32 90.4549 233.147 90.4117C233.103 90.4117 232.93 90.3684 232.887 90.3684C232.671 90.3251 232.498 90.2819 232.282 90.2819C231.806 90.1954 231.287 90.1521 230.811 90.1088C227.783 89.806 224.712 89.9791 221.684 90.4117C220.17 90.628 218.527 90.8875 217.099 91.4499C215.11 92.2719 213.423 93.6129 211.866 95.0405C211.563 95.3001 211.26 95.6029 210.957 95.8624C210.827 95.949 210.741 96.0788 210.611 96.1653C210.611 96.1653 210.395 96.3383 210.308 96.3816C210.179 96.4681 210.049 96.5114 209.962 96.5979C209.919 96.5979 209.833 96.6411 209.789 96.6411C209.746 96.6411 209.746 96.6411 209.703 96.6411C209.703 96.6411 209.703 96.6411 209.66 96.6411H209.703C209.66 96.6411 209.66 96.5979 209.616 96.5979C209.573 96.5546 209.487 96.4681 209.443 96.4248C209.443 96.4248 209.443 96.4248 209.4 96.3816C209.4 96.3816 209.4 96.3816 209.4 96.3383C209.14 95.949 208.924 95.5164 208.794 95.0838C208.405 93.9157 208.448 92.7477 208.751 91.5797C209.4 89.2004 210.784 87.0374 211.087 84.5283ZM181.977 78.4286C181.804 78.342 181.674 78.2555 181.501 78.169C181.458 78.1257 181.285 78.0392 181.285 77.9959C181.198 77.9094 181.112 77.8662 181.068 77.7796C180.982 77.6931 180.852 77.5633 180.766 77.4768C180.766 77.4768 180.722 77.4336 180.679 77.3903C180.636 77.347 180.592 77.2605 180.592 77.2173C180.506 77.0875 180.419 76.9577 180.376 76.8279C180.333 76.7847 180.333 76.6981 180.29 76.6549C180.29 76.6549 180.29 76.6116 180.246 76.6116C180.203 76.4818 180.16 76.3088 180.117 76.179C180.117 76.0925 180.073 76.0492 180.073 75.9627C180.073 75.9195 180.073 75.9195 180.073 75.8762C180.073 75.8762 180.073 75.8762 180.073 75.8329C179.944 74.5784 180.29 73.3671 180.809 72.1991C181.414 70.8147 182.236 69.5169 183.101 68.3056C184.745 66.0128 186.735 63.6335 188.854 61.6003C188.941 61.5138 189.027 61.4273 189.114 61.384C189.07 61.4705 188.984 61.557 188.941 61.6436C188.162 62.9414 190.195 64.0661 190.93 62.8116C192.79 59.6968 195.213 56.9282 197.938 54.5489C201.225 52.5156 204.729 50.8285 208.362 49.4874C210.135 48.8385 211.952 48.2761 213.769 47.8003C215.196 47.4109 214.591 45.2046 213.163 45.594C212.255 45.8103 211.39 46.0699 210.481 46.3727C214.807 44.2097 219.392 42.5658 224.107 41.614C230.249 40.3595 236.91 40.1432 242.879 42.1332C245.604 43.0416 248.156 44.4692 250.146 46.5025C252.265 48.6655 254.125 51.5639 254.817 54.5489C255.12 55.9332 255.12 57.3608 254.644 58.7451C254.082 60.389 252.784 61.6003 251.487 62.6385C250.924 63.0711 250.319 63.5037 249.713 63.8931C249.021 63.547 248.07 64.1094 248.026 64.9313C245.993 66.0994 243.831 67.0078 241.625 67.7433C241.106 66.8781 239.592 67.3107 239.635 68.3922C236.477 69.3439 233.233 70.0793 230.032 70.9013C229.124 71.1176 228.172 71.3771 227.264 71.5934C225.664 71.5934 224.063 71.8097 222.549 72.3288C221.814 72.5452 221.079 72.848 220.387 73.1941C219.176 73.4536 217.964 73.7132 216.753 73.9295C212.255 74.838 207.713 75.6166 203.171 76.3521C199.711 76.9144 196.251 77.347 192.834 78.0825C190.109 78.6449 187.6 79.2072 184.831 79.0342C184.183 78.9909 183.793 78.9477 183.101 78.7746C182.842 78.6881 182.582 78.6449 182.366 78.5151C182.193 78.5583 182.02 78.4718 181.977 78.4286ZM243.744 89.6762C244.22 90.0656 244.955 90.1088 245.388 89.4599C246.556 87.643 247.767 85.7828 249.454 84.4417C249.54 84.3552 249.627 84.312 249.713 84.2687C247.291 86.7345 245.907 90.1954 245.864 93.6129C245.864 95.4731 246.296 97.1603 247.075 98.8474C247.853 100.578 248.891 102.265 250.232 103.606C250.665 104.039 251.141 104.385 251.616 104.688C247.464 104.99 244.566 101.054 243.485 97.29C242.792 94.7377 242.922 92.0555 243.744 89.6762ZM252.395 73.7564C252.265 71.0743 251.746 68.4354 250.751 65.9696C251.703 65.3639 252.568 64.6718 253.433 63.9796C254.947 62.7251 256.158 61.211 256.764 59.3508C257.586 56.8417 257.153 54.2028 256.201 51.8235C256.807 52.7319 257.196 53.8567 257.542 54.8517C258.321 57.1877 258.71 59.5671 258.71 62.0329C258.71 66.8781 257.153 71.5934 254.687 75.7032C253.952 76.9577 253.13 78.169 252.265 79.2938C252.395 77.4336 252.482 75.5734 252.395 73.7564ZM254.687 84.1389C254.601 84.2687 254.558 84.3552 254.558 84.485C254.039 84.7878 253.563 85.1772 253.087 85.5665C252.265 86.2587 251.487 87.0806 250.665 87.816C250.016 88.4217 249.367 89.0273 248.718 89.7195C248.891 89.2436 249.064 88.811 249.324 88.3784C250.405 86.3452 252.006 84.7013 254.082 83.7063C254.212 83.6198 254.341 83.5333 254.428 83.4035C254.644 83.49 254.817 83.5765 255.034 83.663C254.904 83.8361 254.817 84.0091 254.687 84.1389ZM261.651 92.4449C261.262 92.1853 260.657 92.1421 260.267 92.5314C259.056 93.6562 257.802 94.7809 256.634 95.9922C256.288 96.2518 255.899 96.5114 255.553 96.7277C254.601 97.3333 253.606 97.9389 252.568 98.3716C252.784 98.1553 252.957 97.9389 253.174 97.7226C254.082 96.7709 254.904 95.8192 255.812 94.8675C257.413 93.1371 259.099 91.4499 261.089 90.1521C261.349 90.8875 261.522 91.6662 261.651 92.4449ZM252.914 100.621C252.698 100.924 252.525 101.27 252.352 101.573C252.265 101.746 252.222 101.962 252.222 102.135C252.179 102.135 252.092 102.135 252.049 102.178C252.006 102.178 252.006 102.222 251.962 102.222C251.919 102.178 251.876 102.135 251.789 102.049C251.53 101.789 251.27 101.486 251.011 101.183C251.66 101.054 252.265 100.837 252.914 100.621ZM255.942 103.173C255.639 102.784 255.12 102.525 254.558 102.871C254.471 102.914 254.385 102.957 254.298 103.044H254.255C254.168 103.087 254.125 103.087 254.039 103.13C254.039 103.13 253.952 103.13 253.909 103.173C253.866 103.173 253.779 103.173 253.779 103.173C253.736 103.173 253.649 103.173 253.606 103.173C253.606 103.173 253.606 103.173 253.52 103.13C254.341 102.827 255.034 102.438 255.682 101.919C256.158 101.573 256.072 100.751 255.682 100.405L255.639 100.362C256.374 99.4098 257.153 98.5013 257.975 97.6361C259.359 96.6411 260.657 95.5164 261.651 94.132C261.608 94.6512 261.565 95.127 261.478 95.6461C260.873 98.7609 258.71 101.53 255.942 103.173ZM254.168 93.4831C253.217 94.4781 252.308 95.5164 251.357 96.5114C250.665 97.2468 249.973 97.9822 249.54 98.8907C249.41 98.6311 249.237 98.3283 249.108 98.0255C249.021 97.8524 248.935 97.6794 248.891 97.5496C249.237 97.7226 249.627 97.7659 249.973 97.6794C250.751 97.5063 250.881 96.6844 250.578 96.122C250.968 95.5596 251.487 95.0405 251.962 94.5646C252.698 93.8292 253.476 93.1803 254.212 92.4449C255.899 90.801 257.586 89.2004 259.618 87.9891C259.705 87.9458 259.792 87.8593 259.835 87.816C259.921 87.9458 260.008 88.1189 260.094 88.2486C257.888 89.6762 255.985 91.5364 254.168 93.4831ZM258.494 86.1289C255.985 87.643 253.995 89.7195 251.876 91.6662C250.924 92.5314 249.929 93.3966 249.151 94.4349C248.805 94.8675 248.502 95.3433 248.286 95.8624C248.156 95.3866 248.113 94.9107 248.07 94.4349C248.329 94.3051 248.545 94.132 248.675 93.786C248.891 93.0505 249.454 92.2718 250.016 91.6229C250.708 90.8443 251.487 90.1088 252.222 89.3734C253.347 88.3352 254.428 87.1239 255.769 86.3019C256.158 86.8211 256.937 87.1239 257.542 86.5182C257.759 86.3019 257.975 86.0424 258.148 85.7395C258.234 85.8693 258.364 85.9991 258.494 86.1289ZM257.975 78.8612C257.456 79.8994 256.85 80.8944 256.245 81.8461C255.466 81.4568 254.644 81.1539 253.822 81.0242C259.618 73.6267 262.863 63.9796 259.965 54.7219C259.618 53.5539 259.186 52.2993 258.537 51.1746C258.71 51.2178 258.926 51.3043 259.099 51.3909C260.138 51.8667 260.959 52.5589 261.651 53.3808C262.776 54.8084 263.295 56.6686 263.511 58.5288C263.036 65.5802 261.262 72.5884 257.975 78.8612ZM212.082 148.467C211.995 148.424 212.039 148.424 212.082 148.467V148.467ZM272.249 163.997C273.027 164.603 273.806 165.339 274.412 166.117C275.06 166.982 275.406 167.804 275.579 168.843C275.925 170.616 275.277 172.001 274.022 173.169C272.854 174.25 271.427 175.029 270.086 175.894C269.74 171.179 269.134 166.42 268.096 161.791C269.567 162.224 271.081 163.089 272.249 163.997ZM311.654 143.232C309.837 159.974 305.209 176.327 299.11 191.987C295.996 200.033 292.362 207.907 288.339 215.564C286.566 218.981 284.663 222.312 282.587 225.6C282.803 223.956 283.062 222.312 283.279 220.712C283.841 216.559 284.36 212.406 284.836 208.209C285.268 204.446 285.614 200.682 286.134 196.919C287.172 189.651 288.556 182.426 288.599 175.072C288.642 171.654 288.426 168.064 287.474 164.776C286.696 162.051 285.095 159.585 282.976 157.638C278.737 153.745 272.638 151.971 266.972 152.966C266.453 153.053 265.977 153.182 265.501 153.312C264.549 150.846 263.425 148.424 262.041 146.174C259.359 141.805 255.812 137.998 251.357 135.402C250.795 135.056 250.232 134.753 249.67 134.494C249.627 134.451 249.583 134.451 249.54 134.451C253.26 129.562 255.25 123.506 255.639 117.32C255.855 113.599 255.466 109.836 254.471 106.245C255.942 105.726 257.326 104.904 258.537 103.995C260.657 102.395 262.257 100.232 263.165 97.7226C264.03 95.3001 264.117 92.5314 263.338 90.0656C262.56 87.5565 261.046 85.4367 259.056 83.7496C259.143 83.5765 259.186 83.4468 259.272 83.2737C259.921 81.8029 260.613 80.4185 261.262 78.9477C262.776 75.5301 264.03 72.026 264.896 68.4354C265.544 65.7533 265.977 63.0279 265.934 60.2592C265.934 59.6968 265.89 59.0912 265.804 58.4856C265.804 58.399 265.804 58.2693 265.847 58.1827C265.847 57.9664 265.804 57.7934 265.717 57.6203C265.458 55.9332 264.939 54.246 264.03 52.8185C263.252 51.5639 262.171 50.4824 260.916 49.747C260.094 49.2711 259.186 48.925 258.234 48.7087C257.283 48.4924 256.288 48.3626 255.423 47.9733C255.034 47.8003 254.558 47.8003 254.212 48.0166C252.654 45.7238 250.751 43.6905 248.416 42.2197C242.792 38.6723 235.655 38.0234 229.211 38.5858C222.42 39.1915 215.931 41.2247 209.833 44.1664C205.075 46.4592 200.446 49.3144 196.467 52.8617C194.65 53.9865 192.92 55.241 191.233 56.5388C188.378 58.7884 185.826 61.384 183.491 64.1959C181.544 66.5752 179.641 69.0843 178.516 71.9395C177.954 73.3671 177.651 74.9245 177.911 76.4386C178.127 77.8662 178.992 79.1207 180.16 79.9859C182.409 81.6731 185.653 81.5866 188.292 81.2837C188.422 81.2837 188.551 81.2405 188.681 81.2405C188.681 81.327 188.681 81.4568 188.724 81.5433C188.854 82.0624 189.503 82.495 190.065 82.2787C193.612 80.9377 197.289 79.3803 201.138 79.3803C202.998 79.3803 204.902 79.7696 206.588 80.5916C207.713 81.1539 208.492 81.8461 209.054 82.8844C209.054 83.0141 209.054 83.1439 209.054 83.2737C209.184 84.312 208.838 85.48 208.448 86.5615C208.016 87.7728 207.41 88.9841 207.021 90.2386C206.675 91.2769 206.459 92.4016 206.459 93.5264H206.415C203.734 92.964 201.268 94.5646 199.278 96.1653C197.462 97.6361 195.818 99.3233 194.174 100.967C193.353 101.746 192.531 102.654 191.709 103.346C191.579 103.476 191.276 103.649 191.103 103.779C190.974 103.866 190.844 103.909 190.714 103.995C190.671 103.995 190.584 104.039 190.541 104.039C190.498 104.039 190.411 104.082 190.368 104.082C190.325 104.082 190.282 104.082 190.238 104.082C190.195 104.082 190.195 104.039 190.152 104.039C190.152 103.952 190.108 103.909 190.108 103.822C190.108 103.736 190.108 103.649 190.108 103.563C190.108 103.476 190.108 103.39 190.108 103.303C190.108 103.26 190.108 103.217 190.108 103.173C190.238 102.222 190.584 101.313 190.93 100.448V100.405C190.93 100.362 191.017 100.232 191.017 100.232C191.06 100.102 191.103 99.9722 191.19 99.8857C191.32 99.6261 191.449 99.3665 191.579 99.107C191.795 98.6311 192.055 98.1985 192.314 97.7226C192.661 97.117 193.007 96.5114 193.396 95.9057C194.001 94.954 193.05 94.0455 192.185 94.1753C192.271 94.0023 192.401 93.8725 192.487 93.6994C193.223 92.5314 191.363 91.4066 190.628 92.6179C190.195 93.2668 189.762 93.9157 189.287 94.5214C189.157 94.4781 189.07 94.4781 188.941 94.4781C182.452 95.2568 175.661 98.5879 172.893 104.904C172.071 106.807 171.725 108.797 171.898 110.787C169.606 113.513 167.789 116.671 167.011 120.175C166.232 123.679 166.275 127.486 167.443 130.903C168.135 132.937 169.26 134.883 170.86 136.397C172.59 138.041 174.753 139.166 177.046 139.772C177.089 140.074 177.132 140.334 177.175 140.637C177.521 142.54 178.257 144.444 179.165 146.131C181.112 149.678 184.485 152.274 188.119 154.004C189.892 154.826 191.795 155.562 193.785 155.821C195.083 155.994 196.337 156.038 197.592 155.908C194.91 159.455 192.401 163.132 190.195 166.982C187.124 172.347 184.658 178.057 182.279 183.811C179.165 191.338 176.267 198.995 173.023 206.522C170.082 213.314 166.924 220.279 161.95 225.816C159.484 228.585 156.63 231.008 154.077 233.733C152.91 235.031 151.699 236.372 151.179 238.102C150.92 239.011 150.92 239.963 151.136 240.828C144.259 241.001 137.338 241.866 130.807 243.899C128.947 244.462 127.173 245.197 125.4 245.932C123.54 246.711 121.68 247.533 119.906 248.528C116.879 250.258 114.586 252.768 112.64 255.623C110.52 258.694 108.877 262.069 106.671 265.14C106.411 265.529 106.498 266.092 106.844 266.438C103.989 270.245 101.696 274.571 99.8796 278.897C97.8034 283.785 96.203 288.933 95.2946 294.168C88.8497 292.048 82.6211 289.452 76.6087 286.338C77.4305 285.559 78.2091 284.694 78.9877 283.785C80.2853 282.271 81.6262 280.757 83.0969 279.373C86.2977 276.344 89.412 273.273 92.4831 270.115C98.582 263.842 104.508 257.44 110.52 251.08C113.937 247.49 117.354 243.899 120.858 240.438C121.031 240.265 121.161 240.049 121.161 239.833C121.42 239.66 121.593 239.357 121.593 238.968C121.593 235.463 121.766 231.959 121.464 228.499C121.334 226.768 121.118 224.951 120.599 223.264C120.296 222.226 119.733 221.317 119.085 220.452C117.744 218.765 116.36 217.035 115.019 215.347C112.596 212.319 110.174 209.248 107.752 206.219C105.286 203.148 102.864 200.12 100.355 197.092C99.4471 196.01 98.5387 194.885 97.6304 193.804C97.1978 193.285 96.7653 192.722 96.2462 192.246C96.2462 191.9 96.2462 191.554 96.2462 191.251C96.2462 189.824 96.2462 188.439 96.2462 187.012C99.4038 181.085 103.297 175.548 105.892 169.362C107.19 166.247 108.098 162.959 108.747 159.671C109.439 156.124 109.698 152.533 109.179 148.943C108.66 145.309 107.363 141.545 105.286 138.431C103.513 135.748 101.22 133.456 98.755 131.466C97.9332 130.817 97.1113 130.211 96.2462 129.605C96.2462 126.664 96.2462 123.722 96.2462 120.737C96.2462 115.503 96.2462 110.225 96.2462 104.99C96.2462 101.357 96.2462 97.6794 96.2462 94.0455C96.2462 92.791 96.1597 91.5364 96.2895 90.2819C96.6355 85.9126 96.5923 81.4568 95.5109 77.174C95.2946 76.3088 94.9918 75.4436 94.6891 74.5784C94.9053 74.2756 94.9918 73.8862 94.7756 73.4536C94.2133 72.3721 93.4347 71.5069 92.4831 70.7715C92.2236 70.4687 91.964 70.2091 91.7045 69.9495C89.8878 68.2191 87.6818 67.5702 85.2596 67.2674C78.9877 66.532 72.586 66.5752 66.3141 66.532C57.4037 66.4887 48.4933 66.5752 39.5396 66.705C37.0741 66.7483 34.6086 66.7915 32.143 66.8348C40.1451 55.9765 49.4448 45.9401 59.9124 37.5043C66.4871 32.2266 73.4944 27.4679 80.8909 23.4447C88.1144 19.508 95.7704 16.177 103.47 13.2353C111.515 10.1638 119.993 8.21709 128.428 6.61646C136.905 4.97256 145.427 3.80454 154.034 3.28541C171.12 2.20391 188.378 3.41519 205.118 7.17884C220.949 10.7262 236.391 16.3068 250.535 24.2667C263.555 31.4911 275.363 41.268 285.095 52.9482C294.957 64.8448 302.57 78.6449 307.112 93.3966C312.086 109.446 313.47 126.534 311.654 143.232Z" fill="#DFBBFE"/>
</svg>
