<svg width="179" height="42" viewBox="0 0 179 42" fill="none" xmlns="http://www.w3.org/2000/svg">
<rect x="0.54541" width="178" height="42" rx="8" fill="#DFDCD5"/>
<path d="M30.7854 29V25.76H24.8654V23.16L30.9454 15H33.4854V23.42H35.3454V25.76H33.4854V29H30.7854ZM30.7854 23.42V18.56H30.7254L27.1054 23.42H30.7854ZM39.1187 20.38H36.3987C36.3454 18.7267 36.7654 17.3733 37.6587 16.32C38.5654 15.2533 39.8387 14.72 41.4787 14.72C42.812 14.72 43.932 15.1067 44.8387 15.88C45.7987 16.7067 46.2787 17.78 46.2787 19.1C46.2787 20.34 45.8654 21.4 45.0387 22.28C44.6254 22.72 43.7187 23.3933 42.3187 24.3C41.092 25.1133 40.232 25.8667 39.7387 26.56H46.3587V29H36.0787C36.092 27.5467 36.5254 26.3 37.3787 25.26C37.9254 24.62 38.9654 23.78 40.4987 22.74C41.592 21.9933 42.2387 21.5333 42.4387 21.36C43.1054 20.7467 43.4387 20.0667 43.4387 19.32C43.4387 18.6667 43.2387 18.1467 42.8387 17.76C42.452 17.36 41.952 17.16 41.3387 17.16C40.5654 17.16 39.9854 17.5133 39.5987 18.22C39.2787 18.7933 39.1187 19.5133 39.1187 20.38ZM57.112 15V17.44C55.7253 18.6533 54.5986 20.4333 53.732 22.78C52.9586 24.9 52.5586 26.9733 52.532 29H49.492C49.812 24.8 51.3786 21.0133 54.192 17.64H47.552V15H57.112Z" fill="#7D26C9"/>
<path d="M95.5454 22H90.5454V27C90.5454 27.2652 90.4401 27.5196 90.2525 27.7071C90.065 27.8946 89.8106 28 89.5454 28C89.2802 28 89.0258 27.8946 88.8383 27.7071C88.6508 27.5196 88.5454 27.2652 88.5454 27V22H83.5454C83.2802 22 83.0258 21.8946 82.8383 21.7071C82.6508 21.5196 82.5454 21.2652 82.5454 21C82.5454 20.7348 82.6508 20.4804 82.8383 20.2929C83.0258 20.1054 83.2802 20 83.5454 20H88.5454V15C88.5454 14.7348 88.6508 14.4804 88.8383 14.2929C89.0258 14.1054 89.2802 14 89.5454 14C89.8106 14 90.065 14.1054 90.2525 14.2929C90.4401 14.4804 90.5454 14.7348 90.5454 15V20H95.5454C95.8106 20 96.065 20.1054 96.2525 20.2929C96.4401 20.4804 96.5454 20.7348 96.5454 21C96.5454 21.2652 96.4401 21.5196 96.2525 21.7071C96.065 21.8946 95.8106 22 95.5454 22Z" fill="#2D2D2D"/>
<path d="M131.005 18.6H128.305C128.212 18.1067 127.992 17.6933 127.645 17.36C127.312 17.0267 126.905 16.86 126.425 16.86C125.519 16.86 124.825 17.3733 124.345 18.4C123.999 19.1467 123.799 20.0533 123.745 21.12L123.785 21.16C124.519 20.12 125.572 19.6 126.945 19.6C128.239 19.6 129.312 20.08 130.165 21.04C130.885 21.8533 131.245 22.8933 131.245 24.16C131.245 25.6133 130.785 26.8333 129.865 27.82C128.959 28.7933 127.785 29.28 126.345 29.28C124.399 29.28 122.972 28.5133 122.065 26.98C121.332 25.7533 120.965 24.1067 120.965 22.04C120.965 20.08 121.385 18.4333 122.225 17.1C123.212 15.5133 124.625 14.72 126.465 14.72C127.692 14.72 128.712 15.0667 129.525 15.76C130.352 16.44 130.845 17.3867 131.005 18.6ZM126.265 21.74C125.545 21.74 124.985 21.9933 124.585 22.5C124.199 22.9933 124.005 23.6067 124.005 24.34C124.005 25.0333 124.205 25.6267 124.605 26.12C125.032 26.6667 125.585 26.94 126.265 26.94C126.905 26.94 127.432 26.6733 127.845 26.14C128.219 25.6467 128.405 25.06 128.405 24.38C128.405 23.66 128.232 23.0533 127.885 22.56C127.499 22.0133 126.959 21.74 126.265 21.74ZM135.119 20.38H132.399C132.345 18.7267 132.765 17.3733 133.659 16.32C134.565 15.2533 135.839 14.72 137.479 14.72C138.812 14.72 139.932 15.1067 140.839 15.88C141.799 16.7067 142.279 17.78 142.279 19.1C142.279 20.34 141.865 21.4 141.039 22.28C140.625 22.72 139.719 23.3933 138.319 24.3C137.092 25.1133 136.232 25.8667 135.739 26.56H142.359V29H132.079C132.092 27.5467 132.525 26.3 133.379 25.26C133.925 24.62 134.965 23.78 136.499 22.74C137.592 21.9933 138.239 21.5333 138.439 21.36C139.105 20.7467 139.439 20.0667 139.439 19.32C139.439 18.6667 139.239 18.1467 138.839 17.76C138.452 17.36 137.952 17.16 137.339 17.16C136.565 17.16 135.985 17.5133 135.599 18.22C135.279 18.7933 135.119 19.5133 135.119 20.38ZM145.892 24.76C145.892 25.4667 146.132 26.04 146.612 26.48C147.092 26.92 147.679 27.14 148.372 27.14C149.065 27.14 149.639 26.92 150.092 26.48C150.545 26.04 150.772 25.4733 150.772 24.78C150.772 24.1267 150.539 23.5933 150.072 23.18C149.619 22.7533 149.052 22.54 148.372 22.54C147.652 22.54 147.065 22.7267 146.612 23.1C146.132 23.5133 145.892 24.0667 145.892 24.76ZM143.632 18.54C143.632 17.3533 144.132 16.4 145.132 15.68C146.039 15.04 147.112 14.72 148.352 14.72C149.912 14.72 151.125 15.1733 151.992 16.08C152.685 16.8133 153.032 17.6133 153.032 18.48C153.032 19.9733 152.352 20.9667 150.992 21.46C151.819 21.6467 152.459 22.0467 152.912 22.66C153.379 23.26 153.612 24 153.612 24.88C153.612 26.2667 153.065 27.3667 151.972 28.18C150.985 28.9133 149.785 29.28 148.372 29.28C146.905 29.28 145.679 28.9267 144.692 28.22C143.599 27.4333 143.052 26.3267 143.052 24.9C143.052 24.02 143.285 23.28 143.752 22.68C144.219 22.0667 144.865 21.66 145.692 21.46V21.42C144.319 21.0333 143.632 20.0733 143.632 18.54ZM146.212 18.8C146.212 19.3867 146.419 19.84 146.832 20.16C147.245 20.48 147.752 20.64 148.352 20.64C148.952 20.64 149.452 20.48 149.852 20.16C150.252 19.8267 150.452 19.3733 150.452 18.8C150.452 18.3067 150.325 17.8933 150.072 17.56C149.699 17.0933 149.125 16.86 148.352 16.86C147.752 16.86 147.245 17.0333 146.832 17.38C146.419 17.7267 146.212 18.2 146.212 18.8Z" fill="#7D26C9"/>
</svg>
